<?xml version="1.0" encoding="UTF-8"?>
<svg width="18px" height="18px" viewBox="0 0 18 18" version="1.1" xmlns="http://www.w3.org/2000/svg" xmlns:xlink="http://www.w3.org/1999/xlink">
    <!-- Generator: Sketch 45.1 (43504) - http://www.bohemiancoding.com/sketch -->
    <title>Fill 25</title>
    <desc>Created with Sketch.</desc>
    <defs></defs>
    <g id="Page-1" stroke="none" stroke-width="1" fill="none" fill-rule="evenodd">
        <g id="Growth-Report-Editor" transform="translate(-1207.000000, -942.000000)">
            <path d="M1216,959 C1211.58171,959 1208,955.417143 1208,951 C1208,946.582857 1211.58171,943 1216,943 C1220.41829,943 1224,946.582857 1224,951 C1224,955.417143 1220.41829,959 1216,959 L1216,959 Z M1216,942 C1211.02919,942 1207,946.0275 1207,951 C1207,955.9725 1211.02919,960 1216,960 C1220.97081,960 1225,955.9725 1225,951 C1225,946.0275 1220.97081,942 1216,942 L1216,942 Z M1219.42857,950.428571 L1216.57143,950.428571 L1216.57143,947.571429 C1216.57143,947.257143 1216.316,947 1216,947 C1215.684,947 1215.42857,947.257143 1215.42857,947.571429 L1215.42857,950.428571 L1212.57143,950.428571 C1212.25543,950.428571 1212,950.685714 1212,951 C1212,951.314286 1212.25543,951.571429 1212.57143,951.571429 L1215.42857,951.571429 L1215.42857,954.428571 C1215.42857,954.742857 1215.684,955 1216,955 C1216.316,955 1216.57143,954.742857 1216.57143,954.428571 L1216.57143,951.571429 L1219.42857,951.571429 C1219.74457,951.571429 1220,951.314286 1220,951 C1220,950.685714 1219.74457,950.428571 1219.42857,950.428571 L1219.42857,950.428571 Z" id="Fill-25"></path>
        </g>
    </g>
</svg>