<svg xmlns="http://www.w3.org/2000/svg" width="16" height="16" viewBox="0 0 16 16">
  <path d="M15.448 1.655H12.69V.552c0-.304-.25-.552-.552-.552h-1.93c-.305 0-.553.248-.553.552v1.103h-3.31V.552C6.345.248 6.097 0 5.793 0h-1.93C3.56 0 3.31.248 3.31.552v1.103H.552c-.304 0-.552.248-.552.552v12.69c0 .303.248.55.552.55h14.896c.304 0 .552-.247.552-.55V2.207c0-.304-.248-.552-.552-.552zm-4.69-.552h.828V3.31h-.827V1.103zm-6.344 0h.827V3.31h-.824V1.103zM3.31 2.76v1.1c0 .304.25.552.552.552h1.93c.305 0 .553-.248.553-.552v-1.1h3.31v1.1c0 .304.248.552.552.552h1.93c.304 0 .553-.248.553-.552v-1.1h2.207v2.757H1.103V2.76H3.31zM1.103 14.344V6.62h13.794v7.725H1.103z"/>
</svg>