<?xml version="1.0" encoding="UTF-8"?>
<svg width="16px" height="16px" viewBox="0 0 16 16" version="1.1" xmlns="http://www.w3.org/2000/svg" xmlns:xlink="http://www.w3.org/1999/xlink">
    <!-- Generator: Sketch 45.1 (43504) - http://www.bohemiancoding.com/sketch -->
    <title>Shape</title>
    <desc>Created with Sketch.</desc>
    <defs></defs>
    <g id="Page-1" stroke="none" stroke-width="1" fill="none" fill-rule="evenodd">
        <g id="Growth-Report-Editor" transform="translate(-1047.000000, -807.000000)" fill-rule="nonzero">
            <path d="M1062.44828,808.655172 L1059.68966,808.655172 L1059.68966,807.551724 C1059.68966,807.248276 1059.44138,807 1059.13793,807 L1057.2069,807 C1056.90345,807 1056.65517,807.248276 1056.65517,807.551724 L1056.65517,808.655172 L1053.34483,808.655172 L1053.34483,807.551724 C1053.34483,807.248276 1053.09655,807 1052.7931,807 L1050.86207,807 C1050.55862,807 1050.31034,807.248276 1050.31034,807.551724 L1050.31034,808.655172 L1047.55172,808.655172 C1047.24828,808.655172 1047,808.903448 1047,809.206897 L1047,821.896552 C1047,822.2 1047.24828,822.448276 1047.55172,822.448276 L1062.44828,822.448276 C1062.75172,822.448276 1063,822.2 1063,821.896552 L1063,809.206897 C1063,808.903448 1062.75172,808.655172 1062.44828,808.655172 Z M1057.75862,808.103448 L1058.58621,808.103448 L1058.58621,810.310345 L1057.75862,810.310345 L1057.75862,808.103448 Z M1051.41379,808.103448 L1052.24138,808.103448 L1052.24138,810.310345 L1051.41379,810.310345 L1051.41379,808.103448 Z M1050.31034,809.758621 L1050.31034,810.862069 C1050.31034,811.165517 1050.55862,811.413793 1050.86207,811.413793 L1052.7931,811.413793 C1053.09655,811.413793 1053.34483,811.165517 1053.34483,810.862069 L1053.34483,809.758621 L1056.65517,809.758621 L1056.65517,810.862069 C1056.65517,811.165517 1056.90345,811.413793 1057.2069,811.413793 L1059.13793,811.413793 C1059.44138,811.413793 1059.68966,811.165517 1059.68966,810.862069 L1059.68966,809.758621 L1061.89655,809.758621 L1061.89655,812.517241 L1048.10345,812.517241 L1048.10345,809.758621 L1050.31034,809.758621 Z M1048.10345,821.344828 L1048.10345,813.62069 L1061.89655,813.62069 L1061.89655,821.344828 L1048.10345,821.344828 Z" id="Shape"></path>
        </g>
    </g>
</svg>