<svg xmlns="http://www.w3.org/2000/svg" width="56" height="50" viewBox="0 0 56 50">
  <g fill="none" fill-rule="evenodd">
    <path stroke="#435464" d="M56 49H1V0" opacity=".451" stroke-linecap="square"/>
    <path fill="#7DC5AD" d="M13.194 1.96H4.128c-.21 0-.378.66-.378 1.477v42.82h9.82V3.437c0-.817-.168-1.478-.376-1.478z" opacity=".5"/>
    <path fill="#7DC5AD" d="M35.587 18.424H26.52c-.208 0-.377.415-.377.928v26.904h9.82V19.352c0-.513-.168-.928-.376-.928z" opacity=".8"/>
    <path fill="#435464" d="M24.194 6.664h-9.066c-.21 0-.378.415-.378.928v38.664h9.82V7.592c0-.513-.168-.928-.376-.928z" opacity=".7"/>
    <path fill="#7DC5AD" d="M46.587 6.664H37.52c-.208 0-.377.415-.377.928v38.664h9.82V7.592c0-.513-.168-.928-.376-.928z"/>
  </g>
</svg>