<?xml version="1.0" encoding="UTF-8"?>
<svg width="24px" height="22px" viewBox="0 0 24 22" version="1.1" xmlns="http://www.w3.org/2000/svg" xmlns:xlink="http://www.w3.org/1999/xlink">
    <!-- Generator: Sketch 45.1 (43504) - http://www.bohemiancoding.com/sketch -->
    <title>dash</title>
    <desc>Created with Sketch.</desc>
    <defs></defs>
    <g id="Page-1" stroke="none" stroke-width="1" fill="none" fill-rule="evenodd">
        <g id="Dashboard" transform="translate(-23.000000, -94.000000)" stroke="#4A90E2" stroke-width="1.5" fill-rule="nonzero">
            <g id="dash" transform="translate(23.000000, 94.000000)">
                <path d="M0.75,0.75 L0.75,0 L0,0.75 L0.75,0.75 Z M10.2741758,0.75 L11.0241758,0.75 L10.2741758,0 L10.2741758,0.75 Z M10.2741758,11.7321329 L10.2741758,12.4821329 L11.0241758,11.7321329 L10.2741758,11.7321329 Z M0.75,11.7321329 L0,11.7321329 L0.75,12.4821329 L0.75,11.7321329 Z M0.75,11.7321329 L0.75,0.75 L10.2741758,0.75 L10.2741758,11.7321329 L0.75,11.7321329 Z M23.25,0.75 L24,0.75 L23.25,0 L23.25,0.75 Z M23.25,6.8293843 L23.25,7.5793843 L24,6.8293843 L23.25,6.8293843 Z M13.7258242,6.8293843 L12.9758242,6.8293843 L13.7258242,7.5793843 L13.7258242,6.8293843 Z M13.7258242,0.75 L13.7258242,0 L12.9758242,0.75 L13.7258242,0.75 Z M13.7258242,0.75 L23.25,0.75 L23.25,6.8293843 L13.7258242,6.8293843 L13.7258242,0.75 Z M13.7258242,10.157977 L13.7258242,9.40797701 L12.9758242,10.157977 L13.7258242,10.157977 Z M23.25,10.157977 L24,10.157977 L23.25,9.40797701 L23.25,10.157977 Z M23.25,21.1401099 L23.25,21.8901099 L24,21.1401099 L23.25,21.1401099 Z M13.7258242,21.1401099 L12.9758242,21.1401099 L13.7258242,21.8901099 L13.7258242,21.1401099 Z M13.7258242,21.1401099 L13.7258242,10.157977 L23.25,10.157977 L23.25,21.1401099 L13.7258242,21.1401099 Z M0.75,21.1401099 L10.2741758,21.1401099 L10.2741758,15.0607256 L0.75,15.0607256 L0.75,21.1401099 Z" id="Shape"></path>
            </g>
        </g>
    </g>
</svg>