<svg xmlns="http://www.w3.org/2000/svg" width="24" height="22" viewBox="0 0 24 22">
  <path fill="none" stroke="#4A90E2" stroke-width="1.5" d="M.75.75V0L0 .75h.75zm9.524 0h.75l-.75-.75v.75zm0 10.982v.75l.75-.75h-.75zm-9.524 0H0l.75.75v-.75zm0 0V.75h9.524v10.982H.75zM23.25.75H24L23.25 0v.75zm0 6.08v.75l.75-.75h-.75zm-9.524 0h-.75l.75.75v-.75zm0-6.08V0l-.75.75h.75zm0 0h9.524v6.08h-9.524V.75zm0 9.408v-.75l-.75.75h.75zm9.524 0H24l-.75-.75v.75zm0 10.982v.75l.75-.75h-.75zm-9.524 0h-.75l.75.75v-.75zm0 0V10.158h9.524V21.14h-9.524zm-12.976 0h9.524v-6.08H.75v6.08z"/>
</svg>