<svg xmlns="http://www.w3.org/2000/svg" width="24" height="25" viewBox="0 0 24 25">
  <path fill-rule="evenodd" d="M6.573 15.504c-.506 0-.917.417-.917.934 0 .517.41.935.917.935H17.58c.506 0 .917-.418.917-.935 0-.517-.41-.934-.917-.934H6.573zm-.327-5.608c-.326 0-.59.42-.59.935 0 .52.264.938.59.938h7.075c.33 0 .59-.417.59-.934 0-.515-.26-.934-.59-.934H6.25zm12.25-2.414c-1.012 0-1.834-.837-1.834-1.87V1.876l5.504 5.607h-3.67zm1.682 15.65H3.668c-1.012 0-1.834-.838-1.834-1.87l.153-17.518c0-1.032.822-1.87 1.835-1.87h10.98c-.016 2.24.026 3.74.026 3.74 0 2.063 1.643 3.737 3.67 3.737h3.668l-.153 11.915c0 1.032-.822 1.87-1.835 1.87zM14.828.005H3.822C1.796.005.152 1.68.152 3.745L0 21.26C0 23.326 1.643 25 3.67 25h16.508c2.026 0 3.67-1.674 3.67-3.738L24 7.088 17.045 0c-.118.027-.99-.014-2.217.006z"/>
</svg>