<?xml version="1.0" encoding="UTF-8"?>
<svg width="24px" height="25px" viewBox="0 0 24 25" version="1.1" xmlns="http://www.w3.org/2000/svg" xmlns:xlink="http://www.w3.org/1999/xlink">
    <!-- Generator: Sketch 45.1 (43504) - http://www.bohemiancoding.com/sketch -->
    <title>Fill 222</title>
    <desc>Created with Sketch.</desc>
    <defs></defs>
    <g id="Page-1" stroke="none" stroke-width="1" fill="none" fill-rule="evenodd">
        <g id="Dashboard" transform="translate(-23.000000, -163.000000)">
            <path d="M29.5732484,178.503578 C29.0669554,178.503578 28.656051,178.921325 28.656051,179.438134 C28.656051,179.954943 29.0669554,180.372689 29.5732484,180.372689 L40.5796178,180.372689 C41.0859108,180.372689 41.4968153,179.954943 41.4968153,179.438134 C41.4968153,178.921325 41.0859108,178.503578 40.5796178,178.503578 L29.5732484,178.503578 Z M29.2456779,172.896247 C28.9202038,172.896247 28.656051,173.314928 28.656051,173.830803 C28.656051,174.347612 28.9202038,174.765358 29.2456779,174.765358 L36.3212011,174.765358 C36.6466752,174.765358 36.910828,174.347612 36.910828,173.830803 C36.910828,173.314928 36.6466752,172.896247 36.3212011,172.896247 L29.2456779,172.896247 Z M41.4968153,170.48198 C40.4842293,170.48198 39.6624204,169.644618 39.6624204,168.61287 L39.6624204,164.874649 L45.1656051,170.48198 L41.4968153,170.48198 L41.4968153,170.48198 Z M43.1783439,186.13089 L26.6687898,186.13089 C25.6562038,186.13089 24.8343949,185.293528 24.8343949,184.261779 L24.9872611,166.743759 C24.9872611,165.71201 25.8090701,164.874649 26.8216561,164.874649 L37.8023439,164.874649 C37.7858344,167.112908 37.8280255,168.61287 37.8280255,168.61287 C37.8280255,170.677302 39.4707261,172.35109 41.4968153,172.35109 L45.1656051,172.35109 L45.0127389,184.261779 C45.0127389,185.293528 44.1909299,186.13089 43.1783439,186.13089 Z M37.8280255,163.005538 L26.8216561,163.005538 C24.7955669,163.005538 23.1528662,164.679327 23.1528662,166.743759 L23,184.261779 C23,186.326212 24.6427006,188 26.6687898,188 L43.1783439,188 C45.2044331,188 46.8471338,186.326212 46.8471338,184.261779 L47,170.087692 L40.044586,163.000649 C39.9271847,163.026817 39.0552357,162.985913 37.8280255,163.005538 Z" id="Fill-222"></path>
        </g>
    </g>
</svg>