<?xml version="1.0" encoding="UTF-8"?>
<svg width="28px" height="21px" viewBox="0 0 28 21" version="1.1" xmlns="http://www.w3.org/2000/svg" xmlns:xlink="http://www.w3.org/1999/xlink">
    <!-- Generator: Sketch 45.1 (43504) - http://www.bohemiancoding.com/sketch -->
    <title>Fill 186</title>
    <desc>Created with Sketch.</desc>
    <defs></defs>
    <g id="Page-1" stroke="none" stroke-width="1" fill="none" fill-rule="evenodd">
        <g id="Dashboard" transform="translate(-1016.000000, -26.000000)">
            <path d="M1042.25,43.5 C1042.25,43.677625 1042.21588,43.845625 1042.16688,44.00575 L1034.375,35.625 L1042.25,29.5 L1042.25,43.5 L1042.25,43.5 Z M1019.1115,45.20275 L1027.0075,36.78875 L1030,39.050625 L1032.863,36.77475 L1040.8885,45.20275 C1040.76337,45.231625 1019.23663,45.231625 1019.1115,45.20275 L1019.1115,45.20275 Z M1017.75,43.5 L1017.75,29.5 L1025.625,35.625 L1017.83312,44.00575 C1017.78413,43.845625 1017.75,43.677625 1017.75,43.5 L1017.75,43.5 Z M1041.375,27.75 L1030,36.5 L1018.625,27.75 L1041.375,27.75 L1041.375,27.75 Z M1040.5,26 L1019.5,26 C1017.56713,26 1016,27.567125 1016,29.5 L1016,43.5 C1016,45.432875 1017.56713,47 1019.5,47 L1040.5,47 C1042.43287,47 1044,45.432875 1044,43.5 L1044,29.5 C1044,27.567125 1042.43287,26 1040.5,26 L1040.5,26 Z" id="Fill-186"></path>
        </g>
    </g>
</svg>