<?xml version="1.0" encoding="UTF-8"?>
<svg width="16px" height="18px" viewBox="0 0 16 18" version="1.1" xmlns="http://www.w3.org/2000/svg" xmlns:xlink="http://www.w3.org/1999/xlink">
    <!-- Generator: Sketch 45.1 (43504) - http://www.bohemiancoding.com/sketch -->
    <title>Fill 103</title>
    <desc>Created with Sketch.</desc>
    <defs></defs>
    <g id="Page-1" stroke="none" stroke-width="1" fill="none" fill-rule="evenodd">
        <g id="Dashboard" transform="translate(-1008.000000, -103.000000)" stroke="#FFFFFF" stroke-width="0.5">
            <path d="M1013.72373,109.147519 L1015.46667,107.015506 L1015.46667,114.691828 C1015.46667,114.990094 1015.70507,115.231291 1016,115.231291 C1016.29493,115.231291 1016.53333,114.990094 1016.53333,114.691828 L1016.53333,106.995048 L1018.2928,109.147519 C1018.50133,109.360182 1018.84053,109.360182 1019.05013,109.147519 C1019.25867,108.935933 1019.25867,108.591903 1019.05013,108.379779 L1016.41387,105.154303 C1016.30187,105.041241 1016.15413,104.992787 1016.00853,105.000862 C1015.8624,104.992787 1015.71467,105.041241 1015.6032,105.154303 L1012.96693,108.379779 C1012.75787,108.591903 1012.75787,108.935933 1012.96693,109.147519 C1013.176,109.360182 1013.5152,109.360182 1013.72373,109.147519 L1013.72373,109.147519 Z M1023.46667,113.61613 C1023.17173,113.61613 1022.93333,113.857328 1022.93333,114.154517 L1022.93333,117.923226 L1009.06667,117.923226 L1009.06667,114.154517 C1009.06667,113.857328 1008.82827,113.61613 1008.53333,113.61613 C1008.2384,113.61613 1008,113.857328 1008,114.154517 L1008,118.461613 C1008,118.759341 1008.2384,119 1008.53333,119 L1023.46667,119 C1023.7616,119 1024,118.759341 1024,118.461613 L1024,114.154517 C1024,113.857328 1023.7616,113.61613 1023.46667,113.61613 L1023.46667,113.61613 Z" id="Fill-103" transform="translate(1016.000000, 112.000000) rotate(90.000000) translate(-1016.000000, -112.000000) "></path>
        </g>
    </g>
</svg>