<svg xmlns="http://www.w3.org/2000/svg" width="16" height="18" viewBox="0 0 16 18">
  <path fill-rule="evenodd" stroke="#FFF" stroke-width=".5" d="M10.852 6.724l2.132 1.743H5.308c-.298 0-.54.238-.54.533 0 .295.242.533.54.533h7.697l-2.153 1.76c-.212.208-.212.548 0 .757.212.21.556.21.768 0l3.226-2.636c.113-.112.16-.26.153-.405.004-.15-.04-.298-.157-.41L11.62 5.967c-.212-.21-.556-.21-.768 0-.212.21-.212.548 0 .757zm-4.468 9.743c0-.295-.24-.534-.54-.534H2.078V2.067h3.768c.298 0 .54-.24.54-.534 0-.295-.242-.533-.54-.533H1.538C1.24 1 1 1.238 1 1.533v14.934c0 .295.24.533.538.533h4.307c.298 0 .54-.238.54-.533z"/>
</svg>