<?xml version="1.0" encoding="UTF-8"?>
<svg width="14px" height="14px" viewBox="0 0 14 14" version="1.1" xmlns="http://www.w3.org/2000/svg" xmlns:xlink="http://www.w3.org/1999/xlink">
    <!-- Generator: Sketch 45.1 (43504) - http://www.bohemiancoding.com/sketch -->
    <title>Group 5 Copy 3</title>
    <desc>Created with Sketch.</desc>
    <defs></defs>
    <g id="Page-1" stroke="none" stroke-width="1" fill="none" fill-rule="evenodd">
        <g id="Dashboard" transform="translate(-430.000000, -491.000000)">
            <g id="Group-5-Copy-3" transform="translate(430.000000, 491.000000)">
                <path d="M13.8666196,0.126671358 C13.7895554,0.0506685433 13.6828511,0 13.5647142,0 L9.76570219,0 C9.53154552,0 9.34227241,0.190007037 9.34227241,0.422237861 C9.34227241,0.654468684 9.53154552,0.844475721 9.76570219,0.844475721 L12.5726182,0.844475721 L8,5.40464462 L8.59872971,6 L13.1662668,1.44405348 L13.1531404,4.22237861 C13.1531404,4.45460943 13.3424135,4.64461647 13.5765702,4.64461647 C13.8107269,4.64461647 14,4.45460943 14,4.22237861 L14,0.422237861 C14,0.295566502 13.9483416,0.194229416 13.8666196,0.126671358 L13.8666196,0.126671358 Z M5.40127029,8 L0.833733239,12.5559465 L0.846859562,9.77762139 C0.846859562,9.54539057 0.65758645,9.35538353 0.423429781,9.35538353 C0.189273112,9.35538353 0,9.54539057 0,9.77762139 L0,13.5777621 C0,13.7044335 0.0516584333,13.8057706 0.133380381,13.8733286 C0.210444601,13.9493315 0.317148906,14 0.435285815,14 L4.23429781,14 C4.46845448,14 4.65772759,13.809993 4.65772759,13.5777621 C4.65772759,13.3455313 4.46845448,13.1555243 4.23429781,13.1555243 L1.42738179,13.1555243 L6,8.59535538 L5.40127029,8 L5.40127029,8 Z" id="Fill-8"></path>
                <path d="M13.8666196,0.126671358 C13.7895554,0.0506685433 13.6828511,0 13.5647142,0 L9.76570219,0 C9.53154552,0 9.34227241,0.190007037 9.34227241,0.422237861 C9.34227241,0.654468684 9.53154552,0.844475721 9.76570219,0.844475721 L12.5726182,0.844475721 L8,5.40464462 L8.59872971,6 L13.1662668,1.44405348 L13.1531404,4.22237861 C13.1531404,4.45460943 13.3424135,4.64461647 13.5765702,4.64461647 C13.8107269,4.64461647 14,4.45460943 14,4.22237861 L14,0.422237861 C14,0.295566502 13.9483416,0.194229416 13.8666196,0.126671358 L13.8666196,0.126671358 Z M5.40127029,8 L0.833733239,12.5559465 L0.846859562,9.77762139 C0.846859562,9.54539057 0.65758645,9.35538353 0.423429781,9.35538353 C0.189273112,9.35538353 0,9.54539057 0,9.77762139 L0,13.5777621 C0,13.7044335 0.0516584333,13.8057706 0.133380381,13.8733286 C0.210444601,13.9493315 0.317148906,14 0.435285815,14 L4.23429781,14 C4.46845448,14 4.65772759,13.809993 4.65772759,13.5777621 C4.65772759,13.3455313 4.46845448,13.1555243 4.23429781,13.1555243 L1.42738179,13.1555243 L6,8.59535538 L5.40127029,8 L5.40127029,8 Z" id="Fill-8" transform="translate(7.000000, 7.000000) scale(-1, 1) translate(-7.000000, -7.000000) "></path>
            </g>
        </g>
    </g>
</svg>