<svg xmlns="http://www.w3.org/2000/svg" width="14" height="14" viewBox="0 0 14 14">
  <path fill-rule="evenodd" d="M13.867.127C13.79.05 13.683 0 13.565 0h-3.8c-.233 0-.423.19-.423.422 0 .232.19.422.424.422h2.807L8 5.404 8.6 6l4.566-4.556-.013 2.778c0 .233.19.423.424.423.234 0 .423-.19.423-.423v-3.8c0-.126-.052-.228-.133-.295zM5.4 8L.835 12.556l.013-2.778c0-.233-.19-.423-.424-.423-.234 0-.423.19-.423.423v3.8c0 .126.054.228.135.295.077.076.184.127.302.127h3.8c.233 0 .423-.19.423-.422 0-.232-.19-.422-.425-.422H1.427L6 8.596 5.4 8zM.133.127C.21.05.317 0 .435 0h3.8c.233 0 .423.19.423.422 0 .232-.19.422-.424.422H1.427L6 5.404 5.4 6 .835 1.444l.013 2.778c0 .233-.19.423-.424.423-.234 0-.423-.19-.423-.423v-3.8C0 .296.054.194.135.127zM8.6 8l4.566 4.556-.013-2.778c0-.233.19-.423.424-.423.234 0 .423.19.423.423v3.8c0 .126-.052.228-.133.295-.077.076-.184.127-.302.127h-3.8c-.233 0-.423-.19-.423-.422 0-.232.19-.422.424-.422h2.807L8 8.596 8.6 8z"/>
</svg>