<?xml version="1.0" encoding="UTF-8"?>
<svg width="53px" height="69px" viewBox="0 0 53 69" version="1.1" xmlns="http://www.w3.org/2000/svg" xmlns:xlink="http://www.w3.org/1999/xlink">
    <!-- Generator: Sketch 45.1 (43504) - http://www.bohemiancoding.com/sketch -->
    <title>hand</title>
    <desc>Created with Sketch.</desc>
    <defs>
        <linearGradient x1="24.8850385%" y1="100%" x2="53.9485421%" y2="15.2491178%" id="linearGradient-1">
            <stop stop-color="#D8F4FF" stop-opacity="0" offset="0%"></stop>
            <stop stop-color="#B0E6FE" offset="100%"></stop>
        </linearGradient>
    </defs>
    <g id="Page-1" stroke="none" stroke-width="1" fill="none" fill-rule="evenodd">
        <g id="OnD-File-Upload" transform="translate(-652.000000, -318.000000)">
            <g id="hand" transform="translate(641.000000, 319.000000)">
                <g id="Group-53">
                    <ellipse id="Oval-3" stroke="#B5E8FE" stroke-width="2" stroke-linecap="round" stroke-dasharray="4,4" cx="35.5090909" cy="16.1916667" rx="16.3454545" ry="16.1916667"></ellipse>
                    <ellipse id="Oval-4" fill="#B0E6FE" cx="35.5090909" cy="16.1916667" rx="9.58181818" ry="9.49166667"></ellipse>
                    <path d="M16.498464,48.7055427 C12.8598814,47.4683687 9.00826456,46.6853481 5.01258091,46.4247993 C6.14828446,30.3764391 19.6506283,17.706703 36.1402537,17.706703 C39.8585801,17.706703 43.4250094,18.3509331 46.7319983,19.5328619 C44.6633014,22.6960869 42.9927559,26.1385759 41.7906532,29.7906989 C40.1696727,29.3759891 38.4699067,29.1553756 36.7181242,29.1553756 C25.7115722,29.1553756 16.7584643,37.8644959 16.498464,48.7055427 Z" id="Combined-Shape" fill="url(#linearGradient-1)" transform="translate(25.872290, 33.206123) rotate(-28.000000) translate(-25.872290, -33.206123) "></path>
                    <g id="Group-52" transform="translate(29.309091, 16.750000)">
                        <path d="M10.8969697,1.58412737 C9.39393939,-1.29841193 5.26060606,2.70079403 5.26060606,4.93412737 C5.26060606,7.1674607 10.5581052,22.9081777 10.8969697,25.0341274 C11.2358342,27.1600771 9.76969697,27.2674607 8.64242424,26.150794 C7.51515152,25.0341274 2.63030303,20.5674607 0.751515152,22.800794 C-0.501010101,24.2896829 0.250505051,26.5230163 3.00606061,29.500794 C7.51515152,33.9674607 9.76969697,36.5730163 9.76969697,37.3174607 C9.76969697,38.0619051 10.5212121,41.4119051 12.0242424,47.3674607 L31.5636364,42.4333333 L30.0606061,31.7341274 C28.8080808,26.9558202 28.1818182,23.45 28.1818182,21.2166667 C28.1818182,17.8666667 27.8060606,14.9841274 23.6727273,15.6333333 C19.5393939,16.2825393 19.1636364,15.6333333 16.9090909,15.6333333 C14.6545455,15.6333333 12.4,4.46666667 10.8969697,1.58412737 Z" id="Path-5" stroke="#24BCF1" stroke-width="2" fill="#FFFFFF"></path>
                        <polygon id="Path-5-Copy" stroke="#24BCF1" stroke-width="2" fill="#B0E6FE" points="10.1454545 39.0833333 12.4 49.1333333 32.6909091 42.4333333 30.4363636 33.5"></polygon>
                        <polygon id="Path-6" fill="#24BCF1" points="28.1818182 37.9666667 27.0545455 37.9666667 27.0545455 41.3166667 28.1818182 40.2"></polygon>
                    </g>
                </g>
            </g>
        </g>
    </g>
</svg>