<svg xmlns="http://www.w3.org/2000/svg" width="53" height="69" viewBox="0 0 53 69">
  <defs>
    <linearGradient id="a" x1="24.885%" x2="53.949%" y1="100%" y2="15.249%">
      <stop stop-color="#D8F4FF" stop-opacity="0" offset="0%"/>
      <stop stop-color="#B0E6FE" offset="100%"/>
    </linearGradient>
  </defs>
  <g fill="none" fill-rule="evenodd" transform="translate(-11 1)">
    <ellipse cx="35.509" cy="16.192" stroke="#B5E8FE" stroke-width="2" stroke-linecap="round" stroke-dasharray="4,4" rx="16.345" ry="16.192"/>
    <ellipse cx="35.509" cy="16.192" fill="#B0E6FE" rx="9.582" ry="9.492"/>
    <path fill="url(#a)" d="M16.498 48.706c-3.638-1.238-7.49-2.02-11.485-2.28 1.135-16.05 14.638-28.72 31.127-28.72 3.72 0 7.285.645 10.592 1.827-2.07 3.163-3.74 6.606-4.94 10.258-1.622-.41-3.322-.63-5.074-.63-11.006 0-19.96 8.71-20.22 19.55z" transform="rotate(-28 25.872 33.206)"/>
    <path fill="#FFF" stroke="#24BCF1" stroke-width="2" d="M40.206 18.334c-1.503-2.882-5.636 1.117-5.636 3.35s5.297 17.974 5.636 20.1c.34 2.126-1.127 2.233-2.254 1.117-1.128-1.11-6.013-5.58-7.89-3.35-1.254 1.49-.502 3.73 2.253 6.7 4.51 4.47 6.764 7.08 6.764 7.82 0 .75.75 4.1 2.25 10.05l19.54-4.93-1.508-10.7c-1.254-4.776-1.88-8.282-1.88-10.515 0-3.35-.376-6.233-4.51-5.584-4.133.65-4.51 0-6.763 0S41.7 21.223 40.2 18.34z"/>
    <path fill="#B0E6FE" stroke="#24BCF1" stroke-width="2" d="M39.455 55.833l2.254 10.05 20.29-6.7-2.26-8.933z"/>
    <path fill="#24BCF1" d="M57.49 54.717h-1.126v3.35l1.127-1.117"/>
  </g>
</svg>