<svg xmlns="http://www.w3.org/2000/svg" width="24" height="24" viewBox="0 0 24 24">
  <g>
    <path d="M12 1.653c2.773 0 5.36 1.067 7.307 3.014 1.946 1.946 3.013 4.533 3.013 7.306 0 2.774-1.067 5.36-3.013 7.307-1.947 1.947-4.534 3.067-7.307 3.067-2.773 0-5.36-1.067-7.307-3.014-1.946-1.946-3.04-4.56-3.04-7.333 0-2.773 1.067-5.36 3.014-7.307 1.946-1.946 4.56-3.04 7.333-3.04zM12 0C5.36 0 0 5.36 0 12s5.36 12 12 12 12-5.36 12-12S18.64 0 12 0z"/>
    <path d="M11.493 14.72h.987c.107 0 .213-.053.267-.16.026-.08.026-.16.026-.24 0-.107.027-.187.027-.293.053-.294.133-.587.267-.88.133-.267.293-.48.48-.694.16-.16.32-.32.48-.453l.666-.667c.134-.133.294-.346.4-.48.214-.32.4-.693.507-1.066.16-.667.107-1.36-.133-2-.427-1.147-1.44-2.054-2.64-2.32-1.254-.294-2.587.106-3.494 1.013-.453.453-.773 1.013-.933 1.627-.053.16-.107.32-.107.48 0 .16.134.24.267.24h.987c.08 0 .133-.027.186-.08.054-.054.08-.134.08-.214.027-.16.107-.32.16-.453.294-.56.8-.987 1.414-1.147.613-.16 1.28-.053 1.813.32.507.347.853.907.933 1.52.08.64-.053 1.334-.533 1.787l-.293.293-.667.72c-.16.187-.347.374-.533.56-.48.507-.774 1.147-.88 1.814-.027.186-.054.346-.054.533.054.08.134.24.32.24zm0 3.947c-.133 0-.266-.107-.266-.267v-.987c0-.133.106-.266.266-.266h.987c.133 0 .267.106.267.266v.987c0 .133-.107.267-.267.267h-.987z"/>
  </g>
</svg>