<?xml version="1.0" encoding="UTF-8"?>
<svg width="24px" height="24px" viewBox="0 0 24 24" version="1.1" xmlns="http://www.w3.org/2000/svg" xmlns:xlink="http://www.w3.org/1999/xlink">
    <!-- Generator: Sketch 45.1 (43504) - http://www.bohemiancoding.com/sketch -->
    <title>help</title>
    <desc>Created with Sketch.</desc>
    <defs></defs>
    <g id="Page-1" stroke="none" stroke-width="1" fill="none" fill-rule="evenodd">
        <g id="Dashboard" transform="translate(-1090.000000, -23.000000)" fill-rule="nonzero">
            <g id="help" transform="translate(1090.000000, 23.000000)">
                <path d="M12,1.65333333 C14.7733333,1.65333333 17.36,2.72 19.3066667,4.66666667 C21.2533333,6.61333333 22.32,9.2 22.32,11.9733333 C22.32,14.7466667 21.2533333,17.3333333 19.3066667,19.28 C17.36,21.2266667 14.7733333,22.3466667 12,22.3466667 C9.22666667,22.3466667 6.64,21.28 4.69333333,19.3333333 C2.74666667,17.3866667 1.65333333,14.7733333 1.65333333,12 C1.65333333,9.22666667 2.72,6.64 4.66666667,4.69333333 C6.61333333,2.74666667 9.22666667,1.65333333 12,1.65333333 L12,1.65333333 Z M12,0 C5.36,0 0,5.36 0,12 C0,18.64 5.36,24 12,24 C18.64,24 24,18.64 24,12 C24,5.36 18.64,0 12,0 L12,0 Z" id="Shape"></path>
                <g id="Group" transform="translate(8.266667, 5.333333)">
                    <path d="M3.22666667,9.38666667 L4.21333333,9.38666667 C4.32,9.38666667 4.42666667,9.33333333 4.48,9.22666667 C4.50666667,9.14666667 4.50666667,9.06666667 4.50666667,8.98666667 C4.50666667,8.88 4.53333333,8.8 4.53333333,8.69333333 C4.58666667,8.4 4.66666667,8.10666667 4.8,7.81333333 C4.93333333,7.54666667 5.09333333,7.33333333 5.28,7.12 C5.44,6.96 5.6,6.8 5.76,6.66666667 C5.97333333,6.45333333 6.21333333,6.21333333 6.42666667,6 C6.56,5.86666667 6.72,5.65333333 6.82666667,5.52 C7.04,5.2 7.22666667,4.82666667 7.33333333,4.45333333 C7.49333333,3.78666667 7.44,3.09333333 7.2,2.45333333 C6.77333333,1.30666667 5.76,0.4 4.56,0.133333333 C3.30666667,-0.16 1.97333333,0.24 1.06666667,1.14666667 C0.613333333,1.6 0.293333333,2.16 0.133333333,2.77333333 C0.08,2.93333333 0.0266666667,3.09333333 0.0266666667,3.25333333 C0.0266666667,3.41333333 0.16,3.49333333 0.293333333,3.49333333 L0.826666667,3.49333333 L1.28,3.49333333 C1.36,3.49333333 1.41333333,3.46666667 1.46666667,3.41333333 C1.52,3.36 1.54666667,3.28 1.54666667,3.2 C1.57333333,3.04 1.65333333,2.88 1.70666667,2.74666667 C2,2.18666667 2.50666667,1.76 3.12,1.6 C3.73333333,1.44 4.4,1.54666667 4.93333333,1.92 C5.44,2.26666667 5.78666667,2.82666667 5.86666667,3.44 C5.94666667,4.08 5.81333333,4.77333333 5.33333333,5.22666667 C5.25333333,5.30666667 5.12,5.44 5.04,5.52 L4.37333333,6.24 C4.21333333,6.42666667 4.02666667,6.61333333 3.84,6.8 C3.36,7.30666667 3.06666667,7.94666667 2.96,8.61333333 C2.93333333,8.8 2.90666667,8.96 2.90666667,9.14666667 C2.96,9.22666667 3.04,9.38666667 3.22666667,9.38666667 Z" id="Shape"></path>
                    <path d="M3.22666667,13.3333333 C3.09333333,13.3333333 2.96,13.2266667 2.96,13.0666667 L2.96,12.08 C2.96,11.9466667 3.06666667,11.8133333 3.22666667,11.8133333 L4.21333333,11.8133333 C4.34666667,11.8133333 4.48,11.92 4.48,12.08 L4.48,13.0666667 C4.48,13.2 4.37333333,13.3333333 4.21333333,13.3333333 L3.22666667,13.3333333 Z" id="Shape"></path>
                </g>
            </g>
        </g>
    </g>
</svg>