<svg xmlns="http://www.w3.org/2000/svg" width="56" height="50" viewBox="0 0 56 50">
  <g fill="none" fill-rule="evenodd">
    <path stroke="#435464" d="M56 49H1V0" opacity=".451" stroke-linecap="square"/>
    <path fill="#7DC5AD" d="M47.505 12.73V3.662c0-.21-.66-.378-1.476-.378H3.21v9.82h42.82c.814 0 1.475-.168 1.475-.376z" opacity=".5"/>
    <path fill="#7DC5AD" d="M31.04 35.12v-9.065c0-.208-.414-.377-.927-.377H3.21v9.82h26.903c.513 0 .928-.168.928-.377z" opacity=".8"/>
    <path fill="#435464" d="M42.8 23.73v-9.067c0-.21-.414-.378-.927-.378H3.21v9.82h38.663c.513 0 .928-.168.928-.376z" opacity=".7"/>
    <path fill="#7DC5AD" d="M42.8 46.12v-9.065c0-.208-.414-.377-.927-.377H3.21v9.82h38.663c.513 0 .928-.168.928-.377z"/>
  </g>
</svg>