<svg xmlns="http://www.w3.org/2000/svg" width="122" height="16" viewBox="0 0 122 16">
  <g fill="none" fill-rule="evenodd">
    <path fill="#435464" stroke="#435464" stroke-width=".5" d="M1 15h.853l.17-.003L8.97 2.79 15.977 15H17L8.968 1z"/>
    <path fill="#435464" d="M18 7.85v-.04c.02-3.718 2.676-6.786 6.28-6.765 2.23.013 3.566.884 4.844 2.13l-.663.71c-1.08-1.11-2.32-1.945-4.2-1.955-3-.02-5.28 2.54-5.29 5.85v.037c-.01 3.326 2.28 5.93 5.26 5.95 1.8.007 3.04-.718 4.31-2.026l.627.65c-1.327 1.37-2.76 2.28-4.972 2.27-3.57-.02-6.195-3.02-6.175-6.8"/>
    <path stroke="#435464" stroke-width=".5" d="M18 7.85v-.04c.02-3.718 2.676-6.786 6.28-6.765 2.23.013 3.566.884 4.844 2.13l-.663.71c-1.08-1.11-2.32-1.945-4.2-1.955-3-.02-5.28 2.54-5.29 5.85v.037c-.01 3.326 2.28 5.93 5.26 5.95 1.8.007 3.04-.718 4.31-2.026l.627.65c-1.327 1.37-2.76 2.28-4.972 2.27-3.57-.02-6.195-3.02-6.175-6.8z"/>
    <path fill="#435464" d="M30.984 7.85v-.04c.018-3.718 2.675-6.786 6.28-6.765 2.23.013 3.566.884 4.844 2.13l-.664.71c-1.082-1.112-2.328-1.947-4.202-1.956-2.998-.02-5.278 2.54-5.294 5.85v.03c-.018 3.32 2.272 5.93 5.253 5.95 1.81 0 3.04-.72 4.32-2.03l.62.64c-1.32 1.36-2.76 2.272-4.97 2.26-3.57-.02-6.19-3.023-6.18-6.8"/>
    <path stroke="#435464" stroke-width=".5" d="M30.984 7.85v-.04c.018-3.718 2.675-6.786 6.28-6.765 2.23.013 3.566.884 4.844 2.13l-.664.71c-1.082-1.112-2.328-1.947-4.202-1.956-2.998-.02-5.278 2.54-5.294 5.85v.03c-.018 3.32 2.272 5.93 5.253 5.95 1.81 0 3.04-.72 4.32-2.03l.62.64c-1.32 1.36-2.76 2.272-4.97 2.26-3.57-.02-6.19-3.023-6.18-6.8z"/>
    <path fill="#435464" d="M44.41 1.04h9.152v.93h-8.197v5.384h7.37v.928h-7.37v5.438h8.195v.93h-9.15"/>
    <path stroke="#435464" stroke-width=".5" d="M44.41 1.04h9.152v.93h-8.197v5.384h7.37v.928h-7.37v5.438h8.195v.93h-9.15z"/>
    <path fill="#435464" d="M84.984 1.04h9.158v.93H85.94v5.384h7.37v.928h-7.37v5.438h8.2v.93h-9.156"/>
    <path stroke="#435464" stroke-width=".5" d="M84.984 1.04h9.158v.93H85.94v5.384h7.37v.928h-7.37v5.438h8.2v.93h-9.156z"/>
    <path fill="#435464" d="M55.588 1.04h.956v12.68h7.554v.93h-8.51"/>
    <path stroke="#435464" stroke-width=".5" d="M55.588 1.04h.956v12.68h7.554v.93h-8.51z"/>
    <path fill="#435464" d="M74.582 1.04l-8.544 13.61.914-.002v-.002h.183l7.45-11.865 7.512 11.87h1.1"/>
    <path stroke="#435464" stroke-width=".5" d="M74.582 1.04l-8.544 13.61.914-.002v-.002h.183l7.45-11.865 7.512 11.87h1.1z"/>
    <path fill="#435464" d="M101.627 8.16c2.18 0 3.8-1.158 3.8-3.138v-.04c0-1.843-1.38-3-3.744-3H97.23V8.16h4.397zm-5.365-7.118h5.477c1.6 0 2.88.528 3.66 1.352.61.647.98 1.568.98 2.55v.04c0 2.294-1.62 3.607-3.82 3.92l4.213 5.745h-1.23l-4.067-5.57h-4.26v5.57h-.97V1.04z"/>
    <path stroke="#435464" stroke-width=".5" d="M101.627 8.16c2.18 0 3.8-1.158 3.8-3.138v-.04c0-1.843-1.38-3-3.744-3H97.23V8.16h4.397zm-5.365-7.118h5.477c1.6 0 2.88.528 3.66 1.352.61.647.98 1.568.98 2.55v.04c0 2.294-1.62 3.607-3.82 3.92l4.213 5.745h-1.23l-4.067-5.57h-4.26v5.57h-.97V1.04z"/>
    <path fill="#435464" d="M119.787 7.883v-.038c0-3.25-2.25-5.92-5.338-5.92-3.09 0-5.31 2.63-5.31 5.882v.038c0 3.252 2.25 5.92 5.34 5.92s5.3-2.63 5.3-5.882m-11.61 0v-.038c0-3.59 2.52-6.804 6.3-6.804 3.783 0 6.265 3.18 6.265 6.77v.04c0 3.59-2.516 6.81-6.3 6.81-3.785 0-6.27-3.17-6.27-6.76"/>
    <path stroke="#435464" stroke-width=".5" d="M119.787 7.883v-.038c0-3.25-2.25-5.92-5.338-5.92-3.09 0-5.31 2.63-5.31 5.882v.038c0 3.252 2.25 5.92 5.34 5.92s5.3-2.63 5.3-5.882zm-11.606 0v-.038c0-3.59 2.52-6.804 6.31-6.804 3.79 0 6.27 3.18 6.27 6.77v.04c0 3.59-2.51 6.81-6.3 6.81-3.78 0-6.27-3.17-6.27-6.76z"/>
  </g>
</svg>