<?xml version="1.0" encoding="UTF-8"?>
<svg width="122px" height="16px" viewBox="0 0 122 16" version="1.1" xmlns="http://www.w3.org/2000/svg" xmlns:xlink="http://www.w3.org/1999/xlink">
    <!-- Generator: Sketch 45.1 (43504) - http://www.bohemiancoding.com/sketch -->
    <title>Page 1 Copy</title>
    <desc>Created with Sketch.</desc>
    <defs></defs>
    <g id="Page-1" stroke="none" stroke-width="1" fill="none" fill-rule="evenodd">
        <g id="Dashboard-With-Menu" transform="translate(-94.000000, -999.000000)">
            <g id="Page-1-Copy" transform="translate(95.000000, 1000.000000)">
                <polygon id="Fill-1" stroke="#435464" stroke-width="0.5" fill="#435464" points="0 14 0.853201054 13.9985595 0.853201054 13.9985595 1.02309719 13.997119 7.97147729 1.78907295 14.9756627 13.9985595 15.1467989 13.9985595 15.1467989 14 16 14 7.96775694 0"></polygon>
                <g id="Group-36" transform="translate(17.000000, 0.000000)">
                    <path d="M0.00024208304,6.84922 L0.00024208304,6.81142 C0.0188596615,3.09162 2.67585407,0.02422 6.28101515,0.04522 C8.51113508,0.05782 9.84628142,0.92862 11.1242452,2.17602 L10.4606615,2.88582 C9.3781823,1.77282 8.13213438,0.93842 6.25840809,0.92862 C3.26097796,0.91182 0.980324605,3.47242 0.96436668,6.77922 L0.96436668,6.81702 C0.947078929,10.14342 3.23704108,12.74742 6.21718345,12.76562 C8.01909908,12.77402 9.25450839,12.04882 10.5284827,10.74122 L11.1495119,11.38382 C9.82234453,12.74742 8.39012082,13.66022 6.17728864,13.64762 C2.60670306,13.62802 -0.0197053224,10.62502 0.00024208304,6.84922" id="Fill-4" fill="#435464"></path>
                    <path d="M0.00024208304,6.84922 L0.00024208304,6.81142 C0.0188596615,3.09162 2.67585407,0.02422 6.28101515,0.04522 C8.51113508,0.05782 9.84628142,0.92862 11.1242452,2.17602 L10.4606615,2.88582 C9.3781823,1.77282 8.13213438,0.93842 6.25840809,0.92862 C3.26097796,0.91182 0.980324605,3.47242 0.96436668,6.77922 L0.96436668,6.81702 C0.947078929,10.14342 3.23704108,12.74742 6.21718345,12.76562 C8.01909908,12.77402 9.25450839,12.04882 10.5284827,10.74122 L11.1495119,11.38382 C9.82234453,12.74742 8.39012082,13.66022 6.17728864,13.64762 C2.60670306,13.62802 -0.0197053224,10.62502 0.00024208304,6.84922 Z" id="Stroke-6" stroke="#435464" stroke-width="0.5"></path>
                    <path d="M12.9836093,6.84922 L12.9836093,6.81142 C13.0022269,3.09162 15.6592213,0.02422 19.2643824,0.04522 C21.4945023,0.05782 22.8296487,0.92862 24.1076125,2.17602 L23.4440288,2.88582 C22.3615496,1.77282 21.1155016,0.93842 19.2417754,0.92862 C16.2443452,0.91182 13.9636919,3.47242 13.9477339,6.77922 L13.9477339,6.81702 C13.9304462,10.14342 16.2204083,12.74742 19.2005507,12.76562 C21.0024663,12.77402 22.2378757,12.04882 23.5118499,10.74122 L24.1328792,11.38382 C22.8057118,12.74742 21.3734881,13.66022 19.1606559,13.64762 C15.5900703,13.62802 12.9649918,10.62502 12.9836093,6.84922" id="Fill-8" fill="#435464"></path>
                    <path d="M12.9836093,6.84922 L12.9836093,6.81142 C13.0022269,3.09162 15.6592213,0.02422 19.2643824,0.04522 C21.4945023,0.05782 22.8296487,0.92862 24.1076125,2.17602 L23.4440288,2.88582 C22.3615496,1.77282 21.1155016,0.93842 19.2417754,0.92862 C16.2443452,0.91182 13.9636919,3.47242 13.9477339,6.77922 L13.9477339,6.81702 C13.9304462,10.14342 16.2204083,12.74742 19.2005507,12.76562 C21.0024663,12.77402 22.2378757,12.04882 23.5118499,10.74122 L24.1328792,11.38382 C22.8057118,12.74742 21.3734881,13.66022 19.1606559,13.64762 C15.5900703,13.62802 12.9649918,10.62502 12.9836093,6.84922 Z" id="Stroke-10" stroke="#435464" stroke-width="0.5"></path>
                    <polygon id="Fill-12" fill="#435464" points="26.4086122 0.0413 35.5618116 0.0413 35.5618116 0.9709 27.3647578 0.9709 27.3647578 6.3539 34.7346592 6.3539 34.7346592 7.2821 27.3647578 7.2821 27.3647578 12.7197 35.5604818 12.7197 35.5604818 13.6493 26.4086122 13.6493"></polygon>
                    <polygon id="Stroke-14" stroke="#435464" stroke-width="0.5" points="26.4086122 0.0413 35.5618116 0.0413 35.5618116 0.9709 27.3647578 0.9709 27.3647578 6.3539 34.7346592 6.3539 34.7346592 7.2821 27.3647578 7.2821 27.3647578 12.7197 35.5604818 12.7197 35.5604818 13.6493 26.4086122 13.6493"></polygon>
                    <polygon id="Fill-16" fill="#435464" points="66.9838956 0.0413 76.1424143 0.0413 76.1424143 0.9709 67.9400412 0.9709 67.9400412 6.3539 75.3099426 6.3539 75.3099426 7.2821 67.9400412 7.2821 67.9400412 12.7197 76.1410845 12.7197 76.1410845 13.6493 66.9838956 13.6493"></polygon>
                    <polygon id="Stroke-18" stroke="#435464" stroke-width="0.5" points="66.9838956 0.0413 76.1424143 0.0413 76.1424143 0.9709 67.9400412 0.9709 67.9400412 6.3539 75.3099426 6.3539 75.3099426 7.2821 67.9400412 7.2821 67.9400412 12.7197 76.1410845 12.7197 76.1410845 13.6493 66.9838956 13.6493"></polygon>
                    <polygon id="Fill-20" fill="#435464" points="37.5880691 0.0413 38.5442147 0.0413 38.5442147 12.7197 46.0976322 12.7197 46.0976322 13.6493 37.5880691 13.6493"></polygon>
                    <polygon id="Stroke-22" stroke="#435464" stroke-width="0.5" points="37.5880691 0.0413 38.5442147 0.0413 38.5442147 12.7197 46.0976322 12.7197 46.0976322 13.6493 37.5880691 13.6493"></polygon>
                    <polygon id="Fill-24" fill="#435464" points="56.5822545 0.0413 48.0381158 13.6493 48.951707 13.6479 48.9530368 13.6465 49.1352231 13.6465 56.5849142 1.7815 64.0971071 13.6479 64.2792934 13.6479 64.2806232 13.6493 65.196874 13.6493"></polygon>
                    <polygon id="Stroke-26" stroke="#435464" stroke-width="0.5" points="56.5822545 0.0413 48.0381158 13.6493 48.951707 13.6479 48.9530368 13.6465 49.1352231 13.6465 56.5849142 1.7815 64.0971071 13.6479 64.2792934 13.6479 64.2806232 13.6493 65.196874 13.6493"></polygon>
                    <path d="M83.6268139,7.1596 C85.8064004,7.1596 87.4261297,6.0018 87.4261297,4.0222 L87.4261297,3.983 C87.4261297,2.1392 86.0484289,0.9828 83.6826666,0.9828 L79.2304057,0.9828 L79.2304057,7.1596 L83.6268139,7.1596 Z M78.2622916,0.042 L83.7385193,0.042 C85.3409609,0.042 86.6255738,0.5698 87.4075121,1.3944 C88.023222,2.0412 88.3942438,2.9624 88.3942438,3.9438 L88.3942438,3.983 C88.3942438,6.2776 86.7745144,7.5908 84.5763104,7.9044 L88.791862,13.6486 L87.5631019,13.6486 L83.4964908,8.0808 L79.2304057,8.0808 L79.2304057,13.6486 L78.2622916,13.6486 L78.2622916,0.042 Z" id="Fill-28" fill="#435464"></path>
                    <path d="M83.6268139,7.1596 C85.8064004,7.1596 87.4261297,6.0018 87.4261297,4.0222 L87.4261297,3.983 C87.4261297,2.1392 86.0484289,0.9828 83.6826666,0.9828 L79.2304057,0.9828 L79.2304057,7.1596 L83.6268139,7.1596 Z M78.2622916,0.042 L83.7385193,0.042 C85.3409609,0.042 86.6255738,0.5698 87.4075121,1.3944 C88.023222,2.0412 88.3942438,2.9624 88.3942438,3.9438 L88.3942438,3.983 C88.3942438,6.2776 86.7745144,7.5908 84.5763104,7.9044 L88.791862,13.6486 L87.5631019,13.6486 L83.4964908,8.0808 L79.2304057,8.0808 L79.2304057,13.6486 L78.2622916,13.6486 L78.2622916,0.042 Z" id="Stroke-30" stroke="#435464" stroke-width="0.5"></path>
                    <path d="M101.786666,6.88268 L101.786666,6.84488 C101.786666,3.59408 99.5365985,0.92428 96.4487401,0.92428 C93.3595519,0.92428 91.1467197,3.55628 91.1467197,6.80708 L91.1467197,6.84488 C91.1467197,10.09708 93.3954573,12.76548 96.4846454,12.76548 C99.5725038,12.76548 101.786666,10.13488 101.786666,6.88268 M90.1812653,6.88268 L90.1812653,6.84488 C90.1812653,3.25528 92.6999577,0.04088 96.4846454,0.04088 C100.269333,0.04088 102.75079,3.21748 102.75079,6.80708 L102.75079,6.84488 C102.75079,10.43588 100.233428,13.64888 96.4487401,13.64888 C92.6640524,13.64888 90.1812653,10.47228 90.1812653,6.88268" id="Fill-32" fill="#435464"></path>
                    <path d="M101.786666,6.88268 L101.786666,6.84488 C101.786666,3.59408 99.5365985,0.92428 96.4487401,0.92428 C93.3595519,0.92428 91.1467197,3.55628 91.1467197,6.80708 L91.1467197,6.84488 C91.1467197,10.09708 93.3954573,12.76548 96.4846454,12.76548 C99.5725038,12.76548 101.786666,10.13488 101.786666,6.88268 Z M90.1812653,6.88268 L90.1812653,6.84488 C90.1812653,3.25528 92.6999577,0.04088 96.4846454,0.04088 C100.269333,0.04088 102.75079,3.21748 102.75079,6.80708 L102.75079,6.84488 C102.75079,10.43588 100.233428,13.64888 96.4487401,13.64888 C92.6640524,13.64888 90.1812653,10.47228 90.1812653,6.88268 Z" id="Stroke-34" stroke="#435464" stroke-width="0.5"></path>
                </g>
            </g>
        </g>
    </g>
</svg>