<?xml version="1.0" encoding="UTF-8"?>
<svg width="93px" height="12px" viewBox="0 0 93 12" version="1.1" xmlns="http://www.w3.org/2000/svg" xmlns:xlink="http://www.w3.org/1999/xlink">
    <!-- Generator: Sketch 45.1 (43504) - http://www.bohemiancoding.com/sketch -->
    <title>Group 3</title>
    <desc>Created with Sketch.</desc>
    <defs></defs>
    <g id="Page-1" stroke="none" stroke-width="1" fill="none" fill-rule="evenodd" opacity="0.5">
        <g id="LOGIN" transform="translate(-738.000000, -709.000000)">
            <g id="Group-3" transform="translate(739.000000, 710.000000)">
                <g>
                    <polygon id="Stroke-2" stroke="#435464" stroke-width="0.5" points="0 10 0.692759469 9.99915808 0.831278382 9.99814777 6.476089 1.2787095 12.1677322 9.99915808 12.3055915 9.99915808 13 10 6.47361545 0"></polygon>
                    <path d="M17.4606488,9.35089769 C15.3222647,9.33860129 13.6797084,7.42322595 13.691577,4.9784315 L13.6917332,4.95080671 C13.703758,2.51982466 15.3392868,0.636958985 17.4904765,0.649255388 C18.8352238,0.657003806 19.7284946,1.26980264 20.5055777,2.08911366 L20.9820409,1.56693764 C20.0645643,0.650097607 19.1072654,0.00933709467 17.5065616,7.26813652e-05 C14.9198244,-0.0147503799 13.0135033,2.23970249 13.0002292,4.97438885 L13.000073,5.00201364 C12.9864865,7.77830564 14.8707882,9.98525734 17.4319142,9.99991195 C19.0196562,10.0088395 20.0473861,9.33809596 21,8.33518111 L20.5541454,7.86303291 C19.6402607,8.82451057 18.7540174,9.35830922 17.4606488,9.35089769" id="Fill-3" fill="#435464"></path>
                    <path d="M17.4606488,9.35089769 C15.3222647,9.33860129 13.6797084,7.42322595 13.691577,4.9784315 L13.6917332,4.95080671 C13.703758,2.51982466 15.3392868,0.636958985 17.4904765,0.649255388 C18.8352238,0.657003806 19.7284946,1.26980264 20.5055777,2.08911366 L20.9820409,1.56693764 C20.0645643,0.650097607 19.1072654,0.00933709467 17.5065616,7.26813652e-05 C14.9198244,-0.0147503799 13.0135033,2.23970249 13.0002292,4.97438885 L13.000073,5.00201364 C12.9864865,7.77830564 14.8707882,9.98525734 17.4319142,9.99991195 C19.0196562,10.0088395 20.0473861,9.33809596 21,8.33518111 L20.5541454,7.86303291 C19.6402607,8.82451057 18.7540174,9.35830922 17.4606488,9.35089769 Z" id="Stroke-5" stroke="#435464" stroke-width="0.5"></path>
                    <path d="M27.4606488,9.35089769 C25.3222647,9.33860129 23.6797084,7.42322595 23.6917332,4.9784315 L23.6918894,4.95080671 C23.703758,2.51982466 25.339443,0.636958985 27.4906327,0.649255388 C28.8352238,0.657003806 29.7284946,1.26980264 30.5057339,2.08911366 L30.9820409,1.56693764 C30.0645643,0.650097607 29.1072654,0.00933709467 27.5065616,7.26813652e-05 C24.9199805,-0.0147503799 23.0136595,2.23970249 23.0002292,4.97438885 L23.000073,5.00201364 C22.9864865,7.77830564 24.8709443,9.98525734 27.4319142,9.99991195 C29.0196562,10.0088395 30.0473861,9.33809596 31,8.33518111 L30.5541454,7.86303291 C29.6402607,8.82451057 28.7540174,9.35830922 27.4606488,9.35089769" id="Fill-7" fill="#435464"></path>
                    <path d="M27.4606488,9.35089769 C25.3222647,9.33860129 23.6797084,7.42322595 23.6917332,4.9784315 L23.6918894,4.95080671 C23.703758,2.51982466 25.339443,0.636958985 27.4906327,0.649255388 C28.8352238,0.657003806 29.7284946,1.26980264 30.5057339,2.08911366 L30.9820409,1.56693764 C30.0645643,0.650097607 29.1072654,0.00933709467 27.5065616,7.26813652e-05 C24.9199805,-0.0147503799 23.0136595,2.23970249 23.0002292,4.97438885 L23.000073,5.00201364 C22.9864865,7.77830564 24.8709443,9.98525734 27.4319142,9.99991195 C29.0196562,10.0088395 30.0473861,9.33809596 31,8.33518111 L30.5541454,7.86303291 C29.6402607,8.82451057 28.7540174,9.35830922 27.4606488,9.35089769 Z" id="Stroke-9" stroke="#435464" stroke-width="0.5"></path>
                    <polygon id="Fill-11" fill="#435464" points="33 10 39.9986684 10 39.9986684 9.31737051 33.7310253 9.31737051 33.7310253 5.32178218 39.3673435 5.32178218 39.3673435 4.63915269 33.7310253 4.63915269 33.7310253 0.682629487 40 0.682629487 40 0 33 0"></polygon>
                    <polygon id="Stroke-13" stroke="#435464" stroke-width="0.5" points="33 10 39.9986684 10 39.9986684 9.31737051 33.7310253 9.31737051 33.7310253 5.32178218 39.3673435 5.32178218 39.3673435 4.63915269 33.7310253 4.63915269 33.7310253 0.682629487 40 0.682629487 40 0 33 0"></polygon>
                    <polygon id="Fill-15" fill="#435464" points="64 10 70.9990019 10 70.9990019 9.31737051 64.7305736 9.31737051 64.7305736 5.32178218 70.3635759 5.32178218 70.3635759 4.63915269 64.7305736 4.63915269 64.7305736 0.682629487 71 0.682629487 71 0 64 0"></polygon>
                    <polygon id="Stroke-17" stroke="#435464" stroke-width="0.5" points="64 10 70.9990019 10 70.9990019 9.31737051 64.7305736 9.31737051 64.7305736 5.32178218 70.3635759 5.32178218 70.3635759 4.63915269 64.7305736 4.63915269 64.7305736 0.682629487 71 0.682629487 71 0 64 0"></polygon>
                    <polygon id="Fill-19" fill="#435464" points="42.673947 0 42 0 42 10 48 10 48 9.31737051 42.673947 9.31737051"></polygon>
                    <polygon id="Stroke-21" stroke="#435464" stroke-width="0.5" points="42.673947 0 42 0 42 10 48 10 48 9.31737051 42.673947 9.31737051"></polygon>
                    <polygon id="Fill-23" fill="#435464" points="50 10 50.6927595 9.99915808 50.6932542 9.99831616 50.8312784 9.99814777 56.476089 1.2787095 62.1677322 9.99915808 62.3055915 9.99915808 62.3060862 10 62.3062511 10 63 10 56.4737803 0"></polygon>
                    <polygon id="Stroke-25" stroke="#435464" stroke-width="0.5" points="50 10 50.6927595 9.99915808 50.6932542 9.99831616 50.8312784 9.99814777 56.476089 1.2787095 62.1677322 9.99915808 62.3055915 9.99915808 62.3060862 10 62.3062511 10 63 10 56.4737803 0"></polygon>
                    <path d="M72.7360218,5.2309428 L72.7360218,0.691733881 L76.1181504,0.691733881 C77.9152938,0.691733881 78.9625251,1.54175156 78.9625251,2.89642514 L78.9625251,2.92538771 C78.9625251,4.38075673 77.7314124,5.2309428 76.0756527,5.2309428 L72.7360218,5.2309428 Z M79.6983815,2.89642514 L79.6983815,2.86763096 C79.6983815,2.1471029 79.4154489,1.4698503 78.948304,0.994325357 C78.3541619,0.388974018 77.3775398,0 76.1604829,0 L72,0 L72,10 L72.7360218,10 L72.7360218,5.9081954 L75.9766014,5.9081954 L79.0660411,10 L80,10 L76.7974534,5.77853739 C78.4672689,5.54801556 79.6983815,4.58248438 79.6983815,2.89642514 L79.6983815,2.89642514 Z" id="Fill-27" fill="#435464"></path>
                    <path d="M72.7360218,5.2309428 L72.7360218,0.691733881 L76.1181504,0.691733881 C77.9152938,0.691733881 78.9625251,1.54175156 78.9625251,2.89642514 L78.9625251,2.92538771 C78.9625251,4.38075673 77.7314124,5.2309428 76.0756527,5.2309428 L72.7360218,5.2309428 Z M79.6983815,2.89642514 L79.6983815,2.86763096 C79.6983815,2.1471029 79.4154489,1.4698503 78.948304,0.994325357 C78.3541619,0.388974018 77.3775398,0 76.1604829,0 L72,0 L72,10 L72.7360218,10 L72.7360218,5.9081954 L75.9766014,5.9081954 L79.0660411,10 L80,10 L76.7974534,5.77853739 C78.4672689,5.54801556 79.6983815,4.58248438 79.6983815,2.89642514 Z" id="Stroke-29" stroke="#435464" stroke-width="0.5"></path>
                    <path d="M90.2328606,5.02769966 C90.2328606,7.41727988 88.4713838,9.35103642 86.0141133,9.35103642 C83.5566696,9.35103642 81.7669662,7.38949602 81.7669662,5.00008419 L81.7669662,4.97246872 C81.7669662,2.58288851 83.5282699,0.649300352 85.9857135,0.649300352 C88.4431572,0.649300352 90.2328606,2.61050398 90.2328606,5.00008419 L90.2328606,5.02769966 Z M86.0141133,0 C83.0027014,0 81,2.36196474 81,5.00008419 L81,5.02769966 C81,7.66581912 82.9743017,10 85.9857135,10 C88.9969522,10 91,7.63820365 91,5.00008419 L91,4.97246872 C91,2.33434927 89.025352,0 86.0141133,0 L86.0141133,0 Z" id="Fill-31" fill="#435464"></path>
                    <path d="M90.2328606,5.02769966 C90.2328606,7.41727988 88.4713838,9.35103642 86.0141133,9.35103642 C83.5566696,9.35103642 81.7669662,7.38949602 81.7669662,5.00008419 L81.7669662,4.97246872 C81.7669662,2.58288851 83.5282699,0.649300352 85.9857135,0.649300352 C88.4431572,0.649300352 90.2328606,2.61050398 90.2328606,5.00008419 L90.2328606,5.02769966 Z M86.0141133,0 C83.0027014,0 81,2.36196474 81,5.00008419 L81,5.02769966 C81,7.66581912 82.9743017,10 85.9857135,10 C88.9969522,10 91,7.63820365 91,5.00008419 L91,4.97246872 C91,2.33434927 89.025352,0 86.0141133,0 Z" id="Stroke-33" stroke="#435464" stroke-width="0.5"></path>
                </g>
            </g>
        </g>
    </g>
</svg>