<svg xmlns="http://www.w3.org/2000/svg" width="93" height="12" viewBox="0 0 93 12">
  <g fill="none" fill-rule="evenodd" opacity=".5">
    <path fill="#435464" stroke="#435464" stroke-width=".5" d="M1 11h.693l.138-.002 5.65-8.72L13.168 11H14L7.474 1z"/>
    <path fill="#435464" d="M18.46 10.35c-2.138-.01-3.78-1.927-3.768-4.372V5.95c.012-2.43 1.647-4.313 3.798-4.3 1.345.007 2.238.62 3.016 1.44l.476-.523C21.065 1.65 20.107 1.01 18.507 1 15.92.985 14.014 3.24 14 5.974v.028c-.014 2.776 1.87 4.983 4.432 4.998 1.588.01 2.615-.662 3.568-1.665l-.446-.472c-.914.962-1.8 1.495-3.093 1.488"/>
    <path stroke="#435464" stroke-width=".5" d="M18.46 10.35c-2.138-.01-3.78-1.927-3.768-4.372V5.95c.012-2.43 1.647-4.313 3.798-4.3 1.345.007 2.238.62 3.016 1.44l.476-.523C21.065 1.65 20.107 1.01 18.507 1 15.92.985 14.014 3.24 14 5.974v.028c-.014 2.776 1.87 4.983 4.432 4.998 1.588.01 2.615-.662 3.568-1.665l-.446-.472c-.914.962-1.8 1.495-3.093 1.488z"/>
    <path fill="#435464" d="M28.46 10.35c-2.138-.01-3.78-1.927-3.768-4.372V5.95c.012-2.43 1.647-4.313 3.8-4.3 1.343.007 2.236.62 3.014 1.44l.476-.523C31.065 1.65 30.107 1.01 28.507 1 25.92.985 24.014 3.24 24 5.974v.028c-.014 2.776 1.87 4.983 4.432 4.998 1.588.01 2.615-.662 3.568-1.665l-.446-.472c-.914.962-1.8 1.495-3.093 1.488"/>
    <path stroke="#435464" stroke-width=".5" d="M28.46 10.35c-2.138-.01-3.78-1.927-3.768-4.372V5.95c.012-2.43 1.647-4.313 3.8-4.3 1.343.007 2.236.62 3.014 1.44l.476-.523C31.065 1.65 30.107 1.01 28.507 1 25.92.985 24.014 3.24 24 5.974v.028c-.014 2.776 1.87 4.983 4.432 4.998 1.588.01 2.615-.662 3.568-1.665l-.446-.472c-.914.962-1.8 1.495-3.093 1.488z"/>
    <path fill="#435464" d="M34 11h7v-.683h-6.27V6.322h5.637V5.64H34.73V1.682H41V1h-7"/>
    <path stroke="#435464" stroke-width=".5" d="M34 11h7v-.683h-6.27V6.322h5.637V5.64H34.73V1.682H41V1h-7z"/>
    <path fill="#435464" d="M65 11h7v-.683h-6.27V6.322h5.634V5.64H65.73V1.682H72V1h-7"/>
    <path stroke="#435464" stroke-width=".5" d="M65 11h7v-.683h-6.27V6.322h5.634V5.64H65.73V1.682H72V1h-7z"/>
    <path fill="#435464" d="M43.674 1H43v10h6v-.683h-5.326"/>
    <path stroke="#435464" stroke-width=".5" d="M43.674 1H43v10h6v-.683h-5.326z"/>
    <path fill="#435464" d="M51 11h.693v-.002h.138l5.65-8.72L63.168 11H64L57.474 1"/>
    <path stroke="#435464" stroke-width=".5" d="M51 11h.693v-.002h.138l5.65-8.72L63.168 11H64L57.474 1z"/>
    <path fill="#435464" d="M73.736 6.23V1.693h3.382c1.797 0 2.845.85 2.845 2.204v.03c0 1.455-1.232 2.305-2.887 2.305h-3.34zm6.962-2.334v-.028c0-.72-.283-1.398-.75-1.874C79.354 1.39 78.378 1 77.16 1H73v10h.736V6.908h3.24L80.066 11H81l-3.203-4.22c1.67-.232 2.9-1.198 2.9-2.884z"/>
    <path stroke="#435464" stroke-width=".5" d="M73.736 6.23V1.693h3.382c1.797 0 2.845.85 2.845 2.204v.03c0 1.455-1.232 2.305-2.887 2.305h-3.34zm6.962-2.334v-.028c0-.72-.283-1.398-.75-1.874C79.354 1.39 78.378 1 77.16 1H73v10h.736V6.908h3.24L80.066 11H81l-3.203-4.22c1.67-.232 2.9-1.198 2.9-2.884z"/>
    <path fill="#435464" d="M91.233 6.028c0 2.39-1.762 4.323-4.22 4.323-2.456 0-4.246-1.96-4.246-4.35v-.024c0-2.39 1.76-4.323 4.22-4.323 2.456 0 4.246 1.96 4.246 4.35v.03zM87.013 1C84.003 1 82 3.362 82 6v.028C82 8.666 83.974 11 86.986 11 89.996 11 92 8.638 92 6v-.028C92 3.334 90.025 1 87.014 1z"/>
    <path stroke="#435464" stroke-width=".5" d="M91.233 6.028c0 2.39-1.762 4.323-4.22 4.323-2.456 0-4.246-1.96-4.246-4.35v-.024c0-2.39 1.76-4.323 4.22-4.323 2.456 0 4.246 1.96 4.246 4.35v.03zM87.013 1C84.003 1 82 3.362 82 6v.028C82 8.666 83.974 11 86.986 11 89.996 11 92 8.638 92 6v-.028C92 3.334 90.025 1 87.014 1z"/>
  </g>
</svg>