<svg xmlns="http://www.w3.org/2000/svg" width="18" height="18" viewBox="0 0 18 18">
  <path fill-rule="evenodd" stroke="#FFF" stroke-width=".5" d="M10.5 6c.276 0 .5-.224.5-.5v-2c0-.276-.224-.5-.5-.5s-.5.224-.5.5v2c0 .276.224.5.5.5zm5.5 9c0 .552-.448 1-1 1H3c-.552 0-1-.448-1-1V3c0-.552.448-1 1-1h1v5c0 .552.448 1 1 1h8c.552 0 1-.448 1-1V2h1c.552 0 1 .448 1 1v12zM5 2h8v4.5c0 .276-.224.5-.5.5h-7c-.276 0-.5-.224-.5-.5V2zm10-1H3c-1.104 0-2 .895-2 2v12c0 1.105.896 2 2 2h12c1.104 0 2-.895 2-2V3c0-1.105-.896-2-2-2z"/>
</svg>