<?xml version="1.0" encoding="UTF-8"?>
<svg width="18px" height="18px" viewBox="0 0 18 18" version="1.1" xmlns="http://www.w3.org/2000/svg" xmlns:xlink="http://www.w3.org/1999/xlink">
    <!-- Generator: Sketch 45.1 (43504) - http://www.bohemiancoding.com/sketch -->
    <title>Fill 141</title>
    <desc>Created with Sketch.</desc>
    <defs></defs>
    <g id="Page-1" stroke="none" stroke-width="1" fill="none" fill-rule="evenodd">
        <g id="Seat-Factor" transform="translate(-1083.000000, -137.000000)" stroke="#FFFFFF" stroke-width="0.5">
            <path d="M1093.5,143 C1093.776,143 1094,142.7765 1094,142.5 L1094,140.5 C1094,140.2235 1093.776,140 1093.5,140 C1093.224,140 1093,140.2235 1093,140.5 L1093,142.5 C1093,142.7765 1093.224,143 1093.5,143 L1093.5,143 Z M1099,152 C1099,152.552 1098.552,153 1098,153 L1086,153 C1085.448,153 1085,152.552 1085,152 L1085,140 C1085,139.448 1085.448,139 1086,139 L1087,139 L1087,144 C1087,144.552 1087.448,145 1088,145 L1096,145 C1096.552,145 1097,144.552 1097,144 L1097,139 L1098,139 C1098.552,139 1099,139.448 1099,140 L1099,152 L1099,152 Z M1088,139 L1096,139 L1096,143.5 C1096,143.7765 1095.776,144 1095.5,144 L1088.5,144 C1088.224,144 1088,143.7765 1088,143.5 L1088,139 L1088,139 Z M1098,138 L1086,138 C1084.8955,138 1084,138.8955 1084,140 L1084,152 C1084,153.1045 1084.8955,154 1086,154 L1098,154 C1099.1045,154 1100,153.1045 1100,152 L1100,140 C1100,138.8955 1099.1045,138 1098,138 L1098,138 Z" id="Fill-141"></path>
        </g>
    </g>
</svg>