<svg xmlns="http://www.w3.org/2000/svg" width="20" height="20" viewBox="0 0 20 20">
  <path fill-rule="evenodd" d="M18.71 11.25H1.29V2.5c0-.69.578-1.25 1.29-1.25h14.84c.712 0 1.29.56 1.29 1.25v8.75zm0 2.5c0 .69-.578 1.25-1.29 1.25H2.58c-.712 0-1.29-.56-1.29-1.25V12.5h17.42v1.25zm-9.678 2.5h2.58v2.5h-2.58v-2.5zM17.42 0H2.58C1.156 0 0 1.12 0 2.5v11.25c0 1.38 1.155 2.5 2.58 2.5h5.162v2.5h-1.29c-.357 0-.646.28-.646.625 0 .346.29.625.646.625h7.742c.356 0 .645-.28.645-.625s-.29-.625-.647-.625h-1.29v-2.5h4.515c1.425 0 2.58-1.12 2.58-2.5V2.5C20 1.12 18.845 0 17.42 0z"/>
</svg>