<?xml version="1.0" encoding="UTF-8"?>
<svg width="20px" height="20px" viewBox="0 0 20 20" version="1.1" xmlns="http://www.w3.org/2000/svg" xmlns:xlink="http://www.w3.org/1999/xlink">
    <!-- Generator: Sketch 45.1 (43504) - http://www.bohemiancoding.com/sketch -->
    <title>Fill 143</title>
    <desc>Created with Sketch.</desc>
    <defs></defs>
    <g id="Page-1" stroke="none" stroke-width="1" fill="none" fill-rule="evenodd">
        <g id="OnD-File-Upload" transform="translate(-598.000000, -544.000000)">
            <g id="Fill-143" transform="translate(598.000000, 544.000000)">
                <path d="M18.7096774,11.25 L1.29032258,11.25 L1.29032258,2.5 C1.29032258,1.81 1.8683871,1.25 2.58064516,1.25 L17.4193548,1.25 C18.1316129,1.25 18.7096774,1.81 18.7096774,2.5 L18.7096774,11.25 L18.7096774,11.25 Z M18.7096774,13.75 C18.7096774,14.44 18.1316129,15 17.4193548,15 L2.58064516,15 C1.8683871,15 1.29032258,14.44 1.29032258,13.75 L1.29032258,12.5 L18.7096774,12.5 L18.7096774,13.75 L18.7096774,13.75 Z M9.03225806,16.25 L11.6129032,16.25 L11.6129032,18.75 L9.03225806,18.75 L9.03225806,16.25 Z M17.4193548,0 L2.58064516,0 C1.15548387,0 0,1.119375 0,2.5 L0,13.75 C0,15.130625 1.15548387,16.25 2.58064516,16.25 L7.74193548,16.25 L7.74193548,18.75 L6.4516129,18.75 C6.09483871,18.75 5.80645161,19.03 5.80645161,19.375 C5.80645161,19.720625 6.09483871,20 6.4516129,20 L14.1935484,20 C14.5503226,20 14.8387097,19.720625 14.8387097,19.375 C14.8387097,19.03 14.5503226,18.75 14.1935484,18.75 L12.9032258,18.75 L12.9032258,16.25 L17.4193548,16.25 C18.8445161,16.25 20,15.130625 20,13.75 L20,2.5 C20,1.119375 18.8445161,0 17.4193548,0 L17.4193548,0 Z"></path>
            </g>
        </g>
    </g>
</svg>