<?xml version="1.0" encoding="UTF-8"?>
<svg width="19px" height="19px" viewBox="0 0 19 19" version="1.1" xmlns="http://www.w3.org/2000/svg" xmlns:xlink="http://www.w3.org/1999/xlink">
    <!-- Generator: Sketch 45.1 (43504) - http://www.bohemiancoding.com/sketch -->
    <title>Fill 19</title>
    <desc>Created with Sketch.</desc>
    <defs></defs>
    <g id="Page-1" stroke="none" stroke-width="1" fill="none" fill-rule="evenodd" opacity="0.240545743">
        <g id="Dashboard" transform="translate(-921.000000, -26.000000)">
            <path d="M928.989729,40.5132884 C925.256044,40.5132884 922.229326,37.5393999 922.229326,33.8650745 C922.229326,30.1907491 925.256044,27.2109247 928.989729,27.2109247 C932.723413,27.2109247 935.750725,30.1907491 935.750725,33.8650745 C935.750725,37.5393999 932.723413,40.5132884 928.989729,40.5132884 L928.989729,40.5132884 Z M939.809697,43.9561135 L934.907232,39.1302225 C936.190575,37.7352847 936.979457,35.8951541 936.979457,33.8650745 C936.979457,29.5199918 933.40248,26 928.989729,26 C924.576977,26 921,29.5199918 921,33.8650745 C921,38.2042213 924.576977,41.7242131 928.989729,41.7242131 C930.896341,41.7242131 932.645059,41.0653276 934.018627,39.9671851 L938.94068,44.8108838 C939.181084,45.04832 939.569886,45.04832 939.809697,44.8108838 C940.050101,44.5793835 940.050101,44.1935497 939.809697,43.9561135 L939.809697,43.9561135 Z" id="Fill-19"></path>
        </g>
    </g>
</svg>