<svg xmlns="http://www.w3.org/2000/svg" width="24" height="24" viewBox="0 0 24 24">
  <path fill-rule="evenodd" d="M22.016 16.907l-.793 1.386c-.22.383-.704.513-1.084.293l-2.21-1.284c-1.12 1.273-2.63 2.185-4.35 2.537v1.76c0 .44-.358.8-.79.8H11.2c-.436 0-.79-.36-.79-.8v-1.76c-1.716-.36-3.23-1.27-4.348-2.54L3.86 18.58c-.38.22-.864.09-1.083-.293L1.984 16.9c-.22-.38-.09-.87.29-1.09l2.213-1.29c-.263-.796-.42-1.64-.42-2.526s.157-1.73.42-2.526L2.274 8.18c-.38-.22-.51-.71-.29-1.09l.793-1.387c.22-.382.704-.513 1.084-.293l2.21 1.287c1.12-1.27 2.63-2.184 4.35-2.537V2.4c0-.442.356-.8.794-.8H12.8c.438 0 .792.358.792.8v1.76c1.715.353 3.23 1.265 4.35 2.538l2.2-1.284c.38-.22.868-.09 1.088.293l.792 1.386c.22.383.09.872-.29 1.093l-2.214 1.288c.263.796.42 1.64.42 2.526 0 .885-.157 1.73-.42 2.526l2.213 1.29c.38.22.51.71.29 1.09zm1.19-2.078l-1.858-1.09c.104-.57.173-1.15.173-1.75 0-.6-.06-1.18-.17-1.748l1.86-1.083c.76-.44 1.02-1.42.58-2.184L22.2 4.21c-.435-.763-1.41-1.027-2.165-.584l-1.878 1.09c-.876-.75-1.873-1.368-2.98-1.764V1.6c0-.883-.712-1.6-1.59-1.6h-3.172C9.54 0 8.828.717 8.828 1.6v1.358c-1.108.396-2.105 1.01-2.982 1.763l-1.88-1.09c-.76-.44-1.73-.18-2.166.59L.213 6.988C-.225 7.75.035 8.73.793 9.17l1.86 1.083c-.105.568-.174 1.15-.174 1.747 0 .6.06 1.18.17 1.747L.79 14.83c-.757.44-1.017 1.42-.58 2.184l1.59 2.772c.437.764 1.408 1.028 2.167.585l1.877-1.09c.877.75 1.874 1.37 2.982 1.77v1.35c0 .886.71 1.6 1.587 1.6h3.173c.877 0 1.588-.714 1.588-1.6v-1.355c1.108-.395 2.105-1.01 2.98-1.763l1.88 1.09c.757.44 1.73.18 2.166-.59l1.587-2.77c.438-.765.18-1.745-.58-2.186zM12 14.4c-1.315 0-2.38-1.074-2.38-2.4 0-1.325 1.065-2.4 2.38-2.4 1.314 0 2.38 1.075 2.38 2.4 0 1.326-1.066 2.4-2.38 2.4zM12 8c-2.19 0-3.967 1.79-3.967 4S9.81 16 12 16c2.19 0 3.967-1.79 3.967-4S14.19 8 12 8z"/>
</svg>