<?xml version="1.0" encoding="UTF-8"?>
<svg width="24px" height="24px" viewBox="0 0 24 24" version="1.1" xmlns="http://www.w3.org/2000/svg" xmlns:xlink="http://www.w3.org/1999/xlink">
    <!-- Generator: Sketch 45.1 (43504) - http://www.bohemiancoding.com/sketch -->
    <title>Fill 172</title>
    <desc>Created with Sketch.</desc>
    <defs></defs>
    <g id="Page-1" stroke="none" stroke-width="1" fill="none" fill-rule="evenodd">
        <g id="Dashboard" transform="translate(-23.000000, -233.000000)">
            <path d="M45.0163098,249.9072 L44.2226783,251.2928 C44.0034697,251.676 43.5186504,251.8064 43.1386354,251.5856 L40.934548,250.3024 C39.8161036,251.5752 38.3032436,252.4872 36.5863755,252.8392 L36.5863755,254.6 C36.5863755,255.0424 36.2319615,255.4 35.7935441,255.4 L34.2062812,255.4 C33.7678638,255.4 33.4134497,255.0424 33.4134497,254.6 L33.4134497,252.8392 C31.6965817,252.4872 30.1837217,251.5752 29.0652773,250.3024 L26.8611899,251.5856 C26.4811748,251.8064 25.9963556,251.676 25.7771469,251.2928 L24.9835155,249.9072 C24.7643068,249.5248 24.8947119,249.0352 25.273927,248.8152 L27.4868147,247.5256 C27.2236043,246.7304 27.065998,245.8848 27.065998,245 C27.065998,244.1152 27.2236043,243.2704 27.4868147,242.4744 L25.273927,241.1856 C24.8947119,240.9648 24.7643068,240.476 24.9835155,240.0928 L25.7771469,238.7072 C25.9963556,238.3248 26.4811748,238.1936 26.8611899,238.4144 L29.0652773,239.6976 C30.1837217,238.4248 31.6965817,237.5128 33.4134497,237.1608 L33.4134497,235.4 C33.4134497,234.9576 33.7678638,234.6 34.2062812,234.6 L35.7935441,234.6 C36.2319615,234.6 36.5863755,234.9576 36.5863755,235.4 L36.5863755,237.1608 C38.3032436,237.5128 39.8161036,238.4248 40.934548,239.6976 L43.1386354,238.4144 C43.5186504,238.1936 44.0034697,238.3248 44.2226783,238.7072 L45.0163098,240.0928 C45.2355185,240.476 45.1051133,240.9648 44.7258983,241.1856 L42.5130106,242.4744 C42.776221,243.2704 42.9338272,244.1152 42.9338272,245 C42.9338272,245.8848 42.776221,246.7304 42.5130106,247.5256 L44.7258983,248.8152 C45.1051133,249.0352 45.2355185,249.5248 45.0163098,249.9072 L45.0163098,249.9072 Z M46.206757,247.8288 L44.3482833,246.7472 C44.4522875,246.1792 44.5210902,245.5992 44.5210902,245 C44.5210902,244.4016 44.4522875,243.8208 44.3482833,243.2528 L46.206757,242.1712 C46.9659871,241.7296 47.2251974,240.7504 46.78678,239.9856 L45.2003171,237.2144 C44.7626998,236.4496 43.7914612,236.1864 43.0330312,236.6288 L41.1553567,237.7208 C40.278522,236.9688 39.2816824,236.3536 38.1736385,235.9576 L38.1736385,234.6 C38.1736385,233.7168 37.4632103,233 36.5863755,233 L33.4134497,233 C32.536615,233 31.8261868,233.7168 31.8261868,234.6 L31.8261868,235.9576 C30.7181429,236.3536 29.7213033,236.9688 28.8444686,237.7208 L26.9667941,236.6288 C26.208364,236.1864 25.2371255,236.4496 24.7995082,237.2144 L23.2130453,239.9856 C22.7746279,240.7504 23.0346382,241.7296 23.7930683,242.1712 L25.651542,243.2528 C25.5475378,243.8208 25.4787351,244.4016 25.4787351,245 C25.4787351,245.5992 25.5475378,246.1792 25.651542,246.7472 L23.7930683,247.8288 C23.0346382,248.2704 22.7746279,249.2496 23.2130453,250.0144 L24.7995082,252.7856 C25.2371255,253.5504 26.208364,253.8136 26.9667941,253.3712 L28.8444686,252.2792 C29.7213033,253.0312 30.7181429,253.6472 31.8261868,254.0424 L31.8261868,255.4 C31.8261868,256.2832 32.536615,257 33.4134497,257 L36.5863755,257 C37.4632103,257 38.1736385,256.2832 38.1736385,255.4 L38.1736385,254.0424 C39.2816824,253.6472 40.278522,253.0312 41.1553567,252.2792 L43.0330312,253.3712 C43.7914612,253.8136 44.7626998,253.5504 45.2003171,252.7856 L46.78678,250.0144 C47.2251974,249.2496 46.9659871,248.2704 46.206757,247.8288 L46.206757,247.8288 Z M34.9999126,247.4 C33.6854605,247.4 32.6198183,246.3256 32.6198183,245 C32.6198183,243.6752 33.6854605,242.6 34.9999126,242.6 C36.3143648,242.6 37.380007,243.6752 37.380007,245 C37.380007,246.3256 36.3143648,247.4 34.9999126,247.4 L34.9999126,247.4 Z M34.9999126,241 C32.8086258,241 31.0333554,242.7904 31.0333554,245 C31.0333554,247.2096 32.8086258,249 34.9999126,249 C37.1911995,249 38.96727,247.2096 38.96727,245 C38.96727,242.7904 37.1911995,241 34.9999126,241 L34.9999126,241 Z" id="Fill-172"></path>
        </g>
    </g>
</svg>