<?xml version="1.0" encoding="UTF-8"?>
<svg width="16px" height="16px" viewBox="0 0 16 16" version="1.1" xmlns="http://www.w3.org/2000/svg" xmlns:xlink="http://www.w3.org/1999/xlink">
    <!-- Generator: Sketch 45.1 (43504) - http://www.bohemiancoding.com/sketch -->
    <title>Group 11</title>
    <desc>Created with Sketch.</desc>
    <defs></defs>
    <g id="Page-1" stroke="none" stroke-width="1" fill="none" fill-rule="evenodd">
        <g id="Dashboard" transform="translate(-681.000000, -105.000000)">
            <g id="Group-11" transform="translate(681.000000, 105.000000)">
                <g id="Group-12">
                    <g id="Group-13" transform="translate(8.000000, 8.156863) scale(-1, 1) translate(-8.000000, -8.156863) translate(0.000000, 5.333333)">
                        <path d="M15.2727273,2 C15.6741818,2 16,2.298 16,2.66666667 C16,3.03533333 15.6741818,3.33333333 15.2727273,3.33333333 L7.16945455,3.33333333 C6.84581818,4.482 5.71781818,5.33333333 4.36363636,5.33333333 C3.00945455,5.33333333 1.88145455,4.482 1.55781818,3.33333333 L0.727272727,3.33333333 C0.325818182,3.33333333 0,3.03533333 0,2.66666667 C0,2.298 0.325818182,2 0.727272727,2 L1.55781818,2 C1.88145455,0.852 3.00945455,0 4.36363636,0 C5.71781818,0 6.84581818,0.852 7.16945455,2 L15.2727273,2 Z M4.36363636,4 C5.16695964,4 5.81818182,3.40304633 5.81818182,2.66666667 C5.81818182,1.930287 5.16695964,1.33333333 4.36363636,1.33333333 C3.56031309,1.33333333 2.90909091,1.930287 2.90909091,2.66666667 C2.90909091,3.40304633 3.56031309,4 4.36363636,4 Z" id="Combined-Shape"></path>
                    </g>
                    <path d="M7.16945455,2 L15.2727273,2 C15.6741818,2 16,2.29866667 16,2.66666667 C16,3.03533333 15.6741818,3.33333333 15.2727273,3.33333333 L7.16945455,3.33333333 C6.84581818,4.482 5.71781818,5.33333333 4.36363636,5.33333333 C3.00945455,5.33333333 1.88145455,4.482 1.55781818,3.33333333 L0.727272727,3.33333333 C0.325818182,3.33333333 0,3.03533333 0,2.66666667 C0,2.29866667 0.325818182,2 0.727272727,2 L1.55781818,2 C1.88145455,0.851333333 3.00945455,0 4.36363636,0 C5.71781818,0 6.84581818,0.851333333 7.16945455,2 Z M4.36363636,4 C5.16695964,4 5.81818182,3.40304633 5.81818182,2.66666667 C5.81818182,1.930287 5.16695964,1.33333333 4.36363636,1.33333333 C3.56031309,1.33333333 2.90909091,1.930287 2.90909091,2.66666667 C2.90909091,3.40304633 3.56031309,4 4.36363636,4 Z" id="Combined-Shape"></path>
                    <path d="M15.2727273,12.6666667 C15.6741818,12.6666667 16,12.9646667 16,13.3333333 C16,13.702 15.6741818,14 15.2727273,14 L7.16945455,14 C6.84581818,15.1486667 5.71781818,16 4.36363636,16 C3.00945455,16 1.88145455,15.1486667 1.55781818,14 L0.727272727,14 C0.325818182,14 0,13.702 0,13.3333333 C0,12.9646667 0.325818182,12.6666667 0.727272727,12.6666667 L1.55781818,12.6666667 C1.88145455,11.5186667 3.00945455,10.6666667 4.36363636,10.6666667 C5.71781818,10.6666667 6.84581818,11.5186667 7.16945455,12.6666667 L15.2727273,12.6666667 Z M4.36363636,14.6666667 C5.16695964,14.6666667 5.81818182,14.069713 5.81818182,13.3333333 C5.81818182,12.5969537 5.16695964,12 4.36363636,12 C3.56031309,12 2.90909091,12.5969537 2.90909091,13.3333333 C2.90909091,14.069713 3.56031309,14.6666667 4.36363636,14.6666667 Z" id="Combined-Shape"></path>
                </g>
            </g>
        </g>
    </g>
</svg>