<svg xmlns="http://www.w3.org/2000/svg" width="16" height="16" viewBox="0 0 16 16">
  <path fill-rule="evenodd" d="M.727 7.333C.327 7.333 0 7.63 0 8c0 .37.326.667.727.667H8.83c.324 1.148 1.452 2 2.806 2 1.355 0 2.483-.852 2.806-2h.83c.402 0 .728-.298.728-.667 0-.37-.326-.667-.727-.667h-.83c-.324-1.148-1.452-2-2.807-2-1.354 0-2.482.852-2.805 2H.73zm10.91 2c-.804 0-1.455-.597-1.455-1.333s.65-1.333 1.454-1.333c.804 0 1.455.597 1.455 1.333s-.65 1.333-1.45 1.333zM7.17 2h8.103c.4 0 .727.3.727.667 0 .368-.326.666-.727.666H7.17c-.324 1.15-1.452 2-2.806 2-1.355 0-2.483-.85-2.806-2h-.83C.325 3.333 0 3.035 0 2.667 0 2.3.326 2 .727 2h.83C1.882.85 3.01 0 4.365 0c1.353 0 2.48.85 2.805 2zM4.363 4c.803 0 1.454-.597 1.454-1.333 0-.737-.65-1.334-1.454-1.334-.804 0-1.455.597-1.455 1.334C2.91 3.403 3.56 4 4.363 4zm10.91 8.667c.4 0 .727.298.727.666 0 .37-.326.667-.727.667H7.17c-.324 1.15-1.452 2-2.806 2-1.355 0-2.483-.85-2.806-2h-.83C.325 14 0 13.702 0 13.333c0-.368.326-.666.727-.666h.83c.324-1.148 1.452-2 2.807-2 1.354 0 2.482.852 2.805 2h8.1zm-10.91 2c.804 0 1.455-.597 1.455-1.334 0-.736-.65-1.333-1.454-1.333-.804 0-1.455.597-1.455 1.333 0 .737.65 1.334 1.45 1.334z"/>
</svg>