<svg xmlns="http://www.w3.org/2000/svg" width="19" height="14" viewBox="0 0 19 14">
  <path fill-rule="evenodd" d="M14.962 13H4.642S.977 12.628 1 9.4c.013-1.824 1.632-3.492 3.642-3.6 0-2.484 1.61-4.8 4.25-4.8 2.083 0 3.473 1.26 3.968 3.006 3.008-.126 5.042 2.226 5.137 4.194.082 1.698-1.41 3.888-3.035 4.8zM13.696 2.934C12.824 1.196 11.01 0 8.906 0c-2.82 0-5.124 2.147-5.324 4.865C1.51 5.448 0 7.228 0 9.333c0 2.485 2.102 4.51 4.75 4.655L14.844 14C16.884 13.13 19 10.704 19 8.458c0-2.95-2.346-5.355-5.304-5.524zm-3.26 1.228c-.12-.12-.28-.172-.436-.16-.157-.012-.315.04-.435.16l-3.397 3.38c-.224.227-.224.587 0 .81.225.223.59.223.814 0L9.42 5.928v5.5c0 .315.255.572.57.572.317 0 .573-.257.573-.572V5.91l2.455 2.442c.225.223.59.223.814 0 .224-.223.224-.583 0-.81l-3.397-3.38z"/>
</svg>