<?xml version="1.0" encoding="UTF-8"?>
<svg width="19px" height="14px" viewBox="0 0 19 14" version="1.1" xmlns="http://www.w3.org/2000/svg" xmlns:xlink="http://www.w3.org/1999/xlink">
    <!-- Generator: Sketch 45.1 (43504) - http://www.bohemiancoding.com/sketch -->
    <title>Fill 15</title>
    <desc>Created with Sketch.</desc>
    <defs></defs>
    <g id="Page-1" stroke="none" stroke-width="1" fill="none" fill-rule="evenodd">
        <g id="Dashboard" transform="translate(-1105.000000, -105.000000)">
            <path d="M1119.96165,118 L1109.64225,118 C1109.64225,118 1105.97704,117.628 1106.00011,114.4 C1106.01286,112.576 1107.63179,110.908 1109.64225,110.8 C1109.64225,108.316 1111.25086,106 1113.89142,106 C1115.97533,106 1117.36541,107.26 1117.86014,109.006 C1120.86794,108.88 1122.90207,111.232 1122.99677,113.2 C1123.07872,114.898 1121.58848,117.088 1119.96165,118 L1119.96165,118 Z M1118.69603,107.934167 C1117.82441,106.195833 1116.00991,105 1113.90625,105 C1111.08653,105 1108.78219,107.146667 1108.58209,109.865 C1106.50931,110.448333 1105,112.2275 1105,114.333333 C1105,116.818333 1107.10188,118.8425 1109.75,118.988333 L1119.84375,119 C1121.88447,118.130833 1124,115.704167 1124,113.458333 C1124,110.506667 1121.65409,108.103333 1118.69603,107.934167 L1118.69603,107.934167 Z M1115.43536,109.161638 C1115.31587,109.041576 1115.15694,108.99012 1115.00029,109.001555 C1114.84306,108.99012 1114.6847,109.041576 1114.56464,109.161638 L1111.16808,112.540538 C1110.94397,112.769229 1110.94397,113.129416 1111.16808,113.352389 C1111.39334,113.575362 1111.75752,113.575362 1111.98163,113.352389 L1114.41942,110.928271 L1114.41942,116.428274 C1114.41942,116.742723 1114.67498,117 1114.99114,117 C1115.3073,117 1115.56285,116.742723 1115.56285,116.428274 L1115.56285,110.911119 L1118.01837,113.352389 C1118.24305,113.575362 1118.60723,113.575362 1118.83192,113.352389 C1119.05603,113.129416 1119.05603,112.769229 1118.83192,112.540538 L1115.43536,109.161638 L1115.43536,109.161638 Z" id="Fill-15"></path>
        </g>
    </g>
</svg>