<svg xmlns="http://www.w3.org/2000/svg" width="18" height="20" viewBox="0 0 18 20" xmlns:xlink="http://www.w3.org/1999/xlink">
    <defs>
        <path id="a" d="M8.015 9.21c-2.59 0-4.693-2.07-4.693-4.62C3.322 2.04 5.424 0 8.015 0c2.59 0 4.693 2.07 4.693 4.62 0 2.55-2.103 4.59-4.693 4.59zm0-8.61C5.76.6 3.93 2.4 3.93 4.62c0 2.22 1.83 4.02 4.085 4.02s4.083-1.8 4.083-4.02C12.098 2.4 10.27.6 8.015.6zm6.125 9.78l-3.078-1.5c-.183.15-.396.27-.61.36l3.414 1.68c.945.48 1.554 1.41 1.554 2.49v3.99H.61v-4.02c0-1.05.61-2.01 1.554-2.49l3.413-1.68c-.213-.12-.427-.24-.61-.36L1.89 10.38c-1.16.57-1.89 1.74-1.89 3v4.32c0 .18.122.3.305.3h15.39c.182 0 .304-.12.304-.3v-4.32c.03-1.26-.704-2.43-1.86-3z"/>
    </defs>
    <g fill="none" transform="translate(1 1)">
        <use fill="#FFF" fill-rule="evenodd" stroke="#979797" xlink:href="#a"/>
        <use stroke="#979797" xlink:href="#a"/>
        <use stroke="#FFF" xlink:href="#a"/>
    </g>
</svg>