<svg xmlns="http://www.w3.org/2000/svg" viewBox="0 0 128 128">
    <path fill="#FFF" d="M118.95 92.012c-3.778-3.777-10.1-7.074-20.066-12.06-5.024-2.51-13.386-6.69-15.413-8.604 8.49-10.434 13.417-22.22 13.417-32.535 0-7 0-15.71-3.918-23.48C89.436 8.336 81.543 0 64 0c-17.546 0-25.44 8.336-28.967 15.332-3.923 7.77-3.923 16.48-3.923 23.48 0 10.32 4.923 22.102 13.417 32.535-2.033 1.918-10.394 6.098-15.418 8.605-9.963 4.984-16.285 8.28-20.066 12.06C.676 100.385.044 114.436 0 117.17c-.042 2.85 1.06 5.608 3.068 7.647 2 2.03 4.743 3.18 7.595 3.18h106.67c2.86 0 5.595-1.15 7.6-3.18 2.003-2.04 3.11-4.798 3.066-7.653-.044-2.73-.682-16.78-9.05-25.155zm.285 27.19c-.508.513-1.184.798-1.903.798H10.662c-.706 0-1.397-.29-1.894-.797-.496-.504-.777-1.2-.77-1.91.023-1.34.39-13.305 6.705-19.62 2.915-2.915 9.017-6.075 17.988-10.564 9.577-4.786 14.887-7.638 17.333-9.95l5.4-5.105-4.69-5.758c-7.383-9.07-11.622-19.09-11.622-27.484 0-6.473 0-13.805 3.064-19.875C45.842 11.68 53.18 8 64.002 8c10.814 0 18.16 3.68 21.824 10.934 3.063 6.074 3.063 13.406 3.063 19.88 0 8.39-4.236 18.41-11.63 27.483l-4.687 5.762 5.4 5.1c2.445 2.31 7.75 5.16 17.33 9.95 8.972 4.484 15.074 7.645 17.99 10.563 5.137 5.137 6.633 14.75 6.703 19.62.013.71-.265 1.406-.76 1.91z"/>
</svg>